<?xml version="1.0" encoding="UTF-8" standalone="no"?>
<!DOCTYPE svg PUBLIC "-//W3C//DTD SVG 1.1//EN"
 "http://www.w3.org/Graphics/SVG/1.1/DTD/svg11.dtd">
<!-- Generated by graphviz version 2.38.0 (20140413.2041)
 -->
<!-- Title: windbg_graph Pages: 1 -->
<svg width="1389pt" height="715pt"
 viewBox="0.00 0.00 1389.00 715.00" xmlns="http://www.w3.org/2000/svg" xmlns:xlink="http://www.w3.org/1999/xlink">
<g id="graph0" class="graph" transform="scale(1 1) rotate(0) translate(4 711)">
<title>windbg_graph</title>
<polygon fill="white" stroke="none" points="-4,4 -4,-711 1385,-711 1385,4 -4,4"/>
<!-- USER32GetMessageW -->
<g id="node1" class="node"><title>USER32GetMessageW</title>
<polygon fill="none" stroke="black" points="1381,-707 803,-707 803,-579 1381,-579 1381,-707"/>
<text text-anchor="start" x="811" y="-691.8" font-family="Lucida Console" font-size="14.00">00007ffb`2af82030 push rbx</text>
<text text-anchor="start" x="811" y="-676.8" font-family="Lucida Console" font-size="14.00">00007ffb`2af82032 sub rsp,20h</text>
<text text-anchor="start" x="811" y="-661.8" font-family="Lucida Console" font-size="14.00">00007ffb`2af82036 mov eax,r8d</text>
<text text-anchor="start" x="811" y="-646.8" font-family="Lucida Console" font-size="14.00">00007ffb`2af82039 mov r10d,r9d</text>
<text text-anchor="start" x="811" y="-631.8" font-family="Lucida Console" font-size="14.00">00007ffb`2af8203c mov rbx,rcx</text>
<text text-anchor="start" x="811" y="-616.8" font-family="Lucida Console" font-size="14.00">00007ffb`2af8203f or eax,r9d</text>
<text text-anchor="start" x="811" y="-601.8" font-family="Lucida Console" font-size="14.00">00007ffb`2af82042 test eax,0FFFE0000h</text>
<text text-anchor="start" x="811" y="-586.8" font-family="Lucida Console" font-size="14.00">00007ffb`2af82047 jne USER32!GetMessageW+0x50910 (00007ffb`2afd2940)</text>
</g>
<!-- USER32GetMessageW0x50910 -->
<g id="node2" class="node"><title>USER32GetMessageW0x50910</title>
<polygon fill="none" stroke="black" points="1140,-543 562,-543 562,-505 1140,-505 1140,-543"/>
<text text-anchor="start" x="570" y="-527.8" font-family="Lucida Console" font-size="14.00">00007ffb`2afd2940 cmp r9d,0FFFFFFFFh</text>
<text text-anchor="start" x="570" y="-512.8" font-family="Lucida Console" font-size="14.00">00007ffb`2afd2944 jne USER32!GetMessageW+0x50927 (00007ffb`2afd2957)</text>
</g>
<!-- USER32GetMessageW&#45;&gt;USER32GetMessageW0x50910 -->
<g id="edge1" class="edge"><title>USER32GetMessageW&#45;&gt;USER32GetMessageW0x50910</title>
<path fill="none" stroke="black" d="M961.977,-578.877C938.774,-567.612 916.045,-556.578 897.26,-547.458"/>
<polygon fill="black" stroke="black" points="898.618,-544.227 888.093,-543.008 895.56,-550.524 898.618,-544.227"/>
</g>
<!-- USER32GetMessageW0x1d -->
<g id="node3" class="node"><title>USER32GetMessageW0x1d</title>
<polygon fill="gray" stroke="black" points="1309.5,-276 748.5,-276 748.5,-178 1309.5,-178 1309.5,-276"/>
<text text-anchor="start" x="756.5" y="-260.8" font-family="Lucida Console" font-size="14.00">00007ffb`2af8204d mov r9d,r10d</text>
<text text-anchor="start" x="756.5" y="-245.8" font-family="Lucida Console" font-size="14.00">00007ffb`2af82050 call USER32!NtUserGetMessage (00007ffb`2af82080)</text>
<text text-anchor="start" x="756.5" y="-230.8" font-family="Lucida Console" font-size="14.00">00007ffb`2af82055 mov ecx,dword ptr [rbx+8]</text>
<text text-anchor="start" x="756.5" y="-215.8" font-family="Lucida Console" font-size="14.00">00007ffb`2af82058 mov eax,eax</text>
<text text-anchor="start" x="756.5" y="-200.8" font-family="Lucida Console" font-size="14.00">00007ffb`2af8205a cmp ecx,102h</text>
<text text-anchor="start" x="756.5" y="-185.8" font-family="Lucida Console" font-size="14.00">00007ffb`2af82060 je USER32!GetMessageW+0x40 (00007ffb`2af95729)</text>
</g>
<!-- USER32GetMessageW&#45;&gt;USER32GetMessageW0x1d -->
<g id="edge2" class="edge"><title>USER32GetMessageW&#45;&gt;USER32GetMessageW0x1d</title>
<path fill="none" stroke="black" d="M1149.14,-578.712C1215.21,-505.529 1315,-395 1315,-395 1315,-395 1315,-312 1315,-312 1315,-312 1262.32,-296.527 1202.18,-278.863"/>
<polygon fill="black" stroke="black" points="1203.05,-275.471 1192.47,-276.011 1201.07,-282.187 1203.05,-275.471"/>
</g>
<!-- USER32GetMessageW0x50927 -->
<g id="node7" class="node"><title>USER32GetMessageW0x50927</title>
<polygon fill="none" stroke="black" points="734,-395 0,-395 0,-312 734,-312 734,-395"/>
<text text-anchor="start" x="8" y="-379.8" font-family="Lucida Console" font-size="14.00">00007ffb`2afd2957 mov ecx,57h</text>
<text text-anchor="start" x="8" y="-364.8" font-family="Lucida Console" font-size="14.00">00007ffb`2afd295c call qword ptr [USER32!_imp_RtlSetLastWin32Error (00007ffb`2b028000)]</text>
<text text-anchor="start" x="8" y="-349.8" font-family="Lucida Console" font-size="14.00">00007ffb`2afd2962 xor r10d,r10d</text>
<text text-anchor="start" x="8" y="-334.8" font-family="Lucida Console" font-size="14.00">00007ffb`2afd2965 mov eax,r10d</text>
<text text-anchor="start" x="8" y="-319.8" font-family="Lucida Console" font-size="14.00">00007ffb`2afd2968 jmp USER32!GetMessageW+0x3a (00007ffb`2af82072)</text>
</g>
<!-- USER32GetMessageW0x50910&#45;&gt;USER32GetMessageW0x50927 -->
<g id="edge7" class="edge"><title>USER32GetMessageW0x50910&#45;&gt;USER32GetMessageW0x50927</title>
<path fill="none" stroke="black" d="M751.356,-504.944C664.725,-489.246 553,-469 553,-469 553,-469 493.189,-432.181 441.401,-400.301"/>
<polygon fill="black" stroke="black" points="443.189,-397.291 432.838,-395.03 439.519,-403.252 443.189,-397.291"/>
</g>
<!-- USER32GetMessageW0x50916 -->
<g id="node8" class="node"><title>USER32GetMessageW0x50916</title>
<polygon fill="none" stroke="black" points="1140,-469 562,-469 562,-431 1140,-431 1140,-469"/>
<text text-anchor="start" x="570" y="-453.8" font-family="Lucida Console" font-size="14.00">00007ffb`2afd2946 test r8d,0FFFE0000h</text>
<text text-anchor="start" x="570" y="-438.8" font-family="Lucida Console" font-size="14.00">00007ffb`2afd294d jne USER32!GetMessageW+0x50927 (00007ffb`2afd2957)</text>
</g>
<!-- USER32GetMessageW0x50910&#45;&gt;USER32GetMessageW0x50916 -->
<g id="edge8" class="edge"><title>USER32GetMessageW0x50910&#45;&gt;USER32GetMessageW0x50916</title>
<path fill="none" stroke="black" d="M851,-504.831C851,-497.131 851,-487.974 851,-479.417"/>
<polygon fill="black" stroke="black" points="854.5,-479.413 851,-469.413 847.5,-479.413 854.5,-479.413"/>
</g>
<!-- USER32GetMessageW0x40 -->
<g id="node4" class="node"><title>USER32GetMessageW0x40</title>
<polygon fill="none" stroke="black" points="1166.5,-68 753.5,-68 753.5,-0 1166.5,-0 1166.5,-68"/>
<text text-anchor="start" x="761.5" y="-52.8" font-family="Lucida Console" font-size="14.00">00007ffb`2af95729 and qword ptr [rbx+10h],0FFFFh</text>
<text text-anchor="start" x="761.5" y="-37.8" font-family="Lucida Console" font-size="14.00">00007ffb`2af95731 add rsp,20h</text>
<text text-anchor="start" x="761.5" y="-22.8" font-family="Lucida Console" font-size="14.00">00007ffb`2af95735 pop rbx</text>
<text text-anchor="start" x="761.5" y="-7.8" font-family="Lucida Console" font-size="14.00">00007ffb`2af95736 ret </text>
</g>
<!-- USER32GetMessageW0x1d&#45;&gt;USER32GetMessageW0x40 -->
<g id="edge3" class="edge"><title>USER32GetMessageW0x1d&#45;&gt;USER32GetMessageW0x40</title>
<path fill="none" stroke="black" d="M1021.1,-177.782C1015.51,-143.681 1009,-104 1009,-104 1009,-104 999.865,-91.1371 989.484,-76.5187"/>
<polygon fill="black" stroke="black" points="992.283,-74.4141 983.639,-68.2873 986.575,-78.4671 992.283,-74.4141"/>
</g>
<!-- USER32GetMessageW0x32 -->
<g id="node5" class="node"><title>USER32GetMessageW0x32</title>
<polygon fill="none" stroke="black" points="1000.5,-142 455.5,-142 455.5,-104 1000.5,-104 1000.5,-142"/>
<text text-anchor="start" x="463.5" y="-126.8" font-family="Lucida Console" font-size="14.00">00007ffb`2af82066 cmp ecx,0CCh</text>
<text text-anchor="start" x="463.5" y="-111.8" font-family="Lucida Console" font-size="14.00">00007ffb`2af8206c je USER32!GetMessageW+0x40 (00007ffb`2af95729)</text>
</g>
<!-- USER32GetMessageW0x1d&#45;&gt;USER32GetMessageW0x32 -->
<g id="edge4" class="edge"><title>USER32GetMessageW0x1d&#45;&gt;USER32GetMessageW0x32</title>
<path fill="none" stroke="black" d="M887.314,-177.987C853.487,-166.524 819.064,-154.859 790.913,-145.319"/>
<polygon fill="black" stroke="black" points="791.822,-141.932 781.228,-142.037 789.576,-148.562 791.822,-141.932"/>
</g>
<!-- USER32GetMessageW0x32&#45;&gt;USER32GetMessageW0x40 -->
<g id="edge5" class="edge"><title>USER32GetMessageW0x32&#45;&gt;USER32GetMessageW0x40</title>
<path fill="none" stroke="black" d="M776.071,-103.974C800.981,-94.6321 832.344,-82.8708 862.082,-71.7191"/>
<polygon fill="black" stroke="black" points="863.536,-74.9121 871.67,-68.1236 861.078,-68.3578 863.536,-74.9121"/>
</g>
<!-- USER32GetMessageW0x3a -->
<g id="node6" class="node"><title>USER32GetMessageW0x3a</title>
<polygon fill="none" stroke="black" points="666,-60.5 410,-60.5 410,-7.5 666,-7.5 666,-60.5"/>
<text text-anchor="start" x="418" y="-45.3" font-family="Lucida Console" font-size="14.00">00007ffb`2af82072 add rsp,20h</text>
<text text-anchor="start" x="418" y="-30.3" font-family="Lucida Console" font-size="14.00">00007ffb`2af82076 pop rbx</text>
<text text-anchor="start" x="418" y="-15.3" font-family="Lucida Console" font-size="14.00">00007ffb`2af82077 ret </text>
</g>
<!-- USER32GetMessageW0x32&#45;&gt;USER32GetMessageW0x3a -->
<g id="edge6" class="edge"><title>USER32GetMessageW0x32&#45;&gt;USER32GetMessageW0x3a</title>
<path fill="none" stroke="black" d="M688.632,-103.974C664.023,-92.705 631.723,-77.9153 603.347,-64.9219"/>
<polygon fill="black" stroke="black" points="604.44,-61.573 593.891,-60.592 601.526,-67.9375 604.44,-61.573"/>
</g>
<!-- USER32GetMessageW0x50927&#45;&gt;USER32GetMessageW0x3a -->
<g id="edge12" class="edge"><title>USER32GetMessageW0x50927&#45;&gt;USER32GetMessageW0x3a</title>
<path fill="none" stroke="black" d="M379.957,-311.744C402.369,-241.245 446,-104 446,-104 446,-104 471.496,-84.8783 495.644,-66.7672"/>
<polygon fill="black" stroke="black" points="497.843,-69.4931 503.743,-60.6931 493.643,-63.8931 497.843,-69.4931"/>
</g>
<!-- USER32GetMessageW0x50916&#45;&gt;USER32GetMessageW0x50927 -->
<g id="edge9" class="edge"><title>USER32GetMessageW0x50916&#45;&gt;USER32GetMessageW0x50927</title>
<path fill="none" stroke="black" d="M758.538,-430.947C709.025,-421.28 645.777,-408.931 584.625,-396.991"/>
<polygon fill="black" stroke="black" points="584.92,-393.482 574.435,-395.001 583.579,-400.353 584.92,-393.482"/>
</g>
<!-- USER32GetMessageW0x5091f -->
<g id="node9" class="node"><title>USER32GetMessageW0x5091f</title>
<polygon fill="none" stroke="black" points="1305.5,-372.5 752.5,-372.5 752.5,-334.5 1305.5,-334.5 1305.5,-372.5"/>
<text text-anchor="start" x="760.5" y="-357.3" font-family="Lucida Console" font-size="14.00">00007ffb`2afd294f xor r10d,r10d</text>
<text text-anchor="start" x="760.5" y="-342.3" font-family="Lucida Console" font-size="14.00">00007ffb`2afd2952 jmp USER32!GetMessageW+0x1d (00007ffb`2af8204d)</text>
</g>
<!-- USER32GetMessageW0x50916&#45;&gt;USER32GetMessageW0x5091f -->
<g id="edge10" class="edge"><title>USER32GetMessageW0x50916&#45;&gt;USER32GetMessageW0x5091f</title>
<path fill="none" stroke="black" d="M885.32,-430.779C914.1,-415.5 955.335,-393.609 986.254,-377.194"/>
<polygon fill="black" stroke="black" points="987.896,-380.285 995.087,-372.504 984.614,-374.102 987.896,-380.285"/>
</g>
<!-- USER32GetMessageW0x5091f&#45;&gt;USER32GetMessageW0x1d -->
<g id="edge11" class="edge"><title>USER32GetMessageW0x5091f&#45;&gt;USER32GetMessageW0x1d</title>
<path fill="none" stroke="black" d="M1029,-334.397C1029,-321.656 1029,-303.831 1029,-286.409"/>
<polygon fill="black" stroke="black" points="1032.5,-286.239 1029,-276.239 1025.5,-286.239 1032.5,-286.239"/>
</g>
</g>
</svg>
