<?xml version="1.0" encoding="UTF-8" standalone="no"?>
<!DOCTYPE svg PUBLIC "-//W3C//DTD SVG 1.1//EN"
 "http://www.w3.org/Graphics/SVG/1.1/DTD/svg11.dtd">
<!-- Generated by graphviz version 2.38.0 (20140413.2041)
 -->
<!-- Title: windbg_graph Pages: 1 -->
<svg width="2806pt" height="2204pt"
 viewBox="0.00 0.00 2806.00 2204.00" xmlns="http://www.w3.org/2000/svg" xmlns:xlink="http://www.w3.org/1999/xlink">
<g id="graph0" class="graph" transform="scale(1 1) rotate(0) translate(4 2200)">
<title>windbg_graph</title>
<polygon fill="white" stroke="none" points="-4,4 -4,-2200 2802,-2200 2802,4 -4,4"/>
<!-- notepadWinMain0xa6 -->
<g id="node1" class="node"><title>notepadWinMain0xa6</title>
<polygon fill="none" stroke="black" points="1761,-1510 1241,-1510 1241,-1472 1761,-1472 1761,-1510"/>
<text text-anchor="start" x="1249" y="-1494.8" font-family="Lucida Console" font-size="14.00">00007ff7`d35f1000 cmp word ptr [rbx],9</text>
<text text-anchor="start" x="1249" y="-1479.8" font-family="Lucida Console" font-size="14.00">00007ff7`d35f1004 je notepad!WinMain+0xac (00007ff7`d35f600c)</text>
</g>
<!-- notepadWinMain0xac -->
<g id="node2" class="node"><title>notepadWinMain0xac</title>
<polygon fill="none" stroke="black" points="1807,-1406 1279,-1406 1279,-1368 1807,-1368 1807,-1406"/>
<text text-anchor="start" x="1287" y="-1390.8" font-family="Lucida Console" font-size="14.00">00007ff7`d35f600c add rbx,2</text>
<text text-anchor="start" x="1287" y="-1375.8" font-family="Lucida Console" font-size="14.00">00007ff7`d35f6010 jmp notepad!WinMain+0xa0 (00007ff7`d35f6002)</text>
</g>
<!-- notepadWinMain0xa6&#45;&gt;notepadWinMain0xac -->
<g id="edge1" class="edge"><title>notepadWinMain0xa6&#45;&gt;notepadWinMain0xac</title>
<path fill="none" stroke="black" d="M1508.51,-1471.76C1514.96,-1456.1 1524.35,-1433.28 1531.71,-1415.42"/>
<polygon fill="black" stroke="black" points="1534.99,-1416.66 1535.56,-1406.08 1528.51,-1413.99 1534.99,-1416.66"/>
</g>
<!-- notepadWinMain0xb2 -->
<g id="node3" class="node"><title>notepadWinMain0xb2</title>
<polygon fill="none" stroke="black" points="1158,-1436 630,-1436 630,-1338 1158,-1338 1158,-1436"/>
<text text-anchor="start" x="638" y="-1420.8" font-family="Lucida Console" font-size="14.00">00007ff7`d35f100a mov r8d,esi</text>
<text text-anchor="start" x="638" y="-1405.8" font-family="Lucida Console" font-size="14.00">00007ff7`d35f100d mov rdx,rbx</text>
<text text-anchor="start" x="638" y="-1390.8" font-family="Lucida Console" font-size="14.00">00007ff7`d35f1010 mov rcx,rbp</text>
<text text-anchor="start" x="638" y="-1375.8" font-family="Lucida Console" font-size="14.00">00007ff7`d35f1013 call notepad!NPInit (00007ff7`d35f698c)</text>
<text text-anchor="start" x="638" y="-1360.8" font-family="Lucida Console" font-size="14.00">00007ff7`d35f1018 test eax,eax</text>
<text text-anchor="start" x="638" y="-1345.8" font-family="Lucida Console" font-size="14.00">00007ff7`d35f101a je notepad!WinMain+0x1c2 (00007ff7`d35f8714)</text>
</g>
<!-- notepadWinMain0xa6&#45;&gt;notepadWinMain0xb2 -->
<g id="edge2" class="edge"><title>notepadWinMain0xa6&#45;&gt;notepadWinMain0xb2</title>
<path fill="none" stroke="black" d="M1393.88,-1472C1330.97,-1461.43 1248.33,-1447.54 1168.4,-1434.11"/>
<polygon fill="black" stroke="black" points="1168.61,-1430.6 1158.17,-1432.39 1167.45,-1437.5 1168.61,-1430.6"/>
</g>
<!-- notepadWinMain0xa0 -->
<g id="node24" class="node"><title>notepadWinMain0xa0</title>
<polygon fill="none" stroke="black" points="1807,-1234.5 1279,-1234.5 1279,-1196.5 1807,-1196.5 1807,-1234.5"/>
<text text-anchor="start" x="1287" y="-1219.3" font-family="Lucida Console" font-size="14.00">00007ff7`d35f6002 cmp word ptr [rbx],20h</text>
<text text-anchor="start" x="1287" y="-1204.3" font-family="Lucida Console" font-size="14.00">00007ff7`d35f6006 jne notepad!WinMain+0xa6 (00007ff7`d35f1000)</text>
</g>
<!-- notepadWinMain0xac&#45;&gt;notepadWinMain0xa0 -->
<g id="edge39" class="edge"><title>notepadWinMain0xac&#45;&gt;notepadWinMain0xa0</title>
<path fill="none" stroke="black" d="M1538.63,-1367.86C1535.75,-1338.3 1535.48,-1279.51 1537.83,-1244.54"/>
<polygon fill="black" stroke="black" points="1541.32,-1244.76 1538.64,-1234.51 1534.35,-1244.19 1541.32,-1244.76"/>
</g>
<!-- notepadWinMain0x1c2 -->
<g id="node4" class="node"><title>notepadWinMain0x1c2</title>
<polygon fill="none" stroke="black" points="536,-1055.5 0,-1055.5 0,-1017.5 536,-1017.5 536,-1055.5"/>
<text text-anchor="start" x="8" y="-1040.3" font-family="Lucida Console" font-size="14.00">00007ff7`d35f8714 mov qword ptr [rsp+50h],r14</text>
<text text-anchor="start" x="8" y="-1025.3" font-family="Lucida Console" font-size="14.00">00007ff7`d35f8719 jmp notepad!WinMain+0x1c7 (00007ff7`d35f148a)</text>
</g>
<!-- notepadWinMain0xb2&#45;&gt;notepadWinMain0x1c2 -->
<g id="edge3" class="edge"><title>notepadWinMain0xb2&#45;&gt;notepadWinMain0x1c2</title>
<path fill="none" stroke="black" d="M679.094,-1337.99C594.869,-1319.17 518,-1302 518,-1302 518,-1302 355.173,-1129.73 292.333,-1063.24"/>
<polygon fill="black" stroke="black" points="294.596,-1060.54 285.184,-1055.68 289.509,-1065.35 294.596,-1060.54"/>
</g>
<!-- notepadWinMain0xc8 -->
<g id="node5" class="node"><title>notepadWinMain0xc8</title>
<polygon fill="none" stroke="black" points="1261,-1302 527,-1302 527,-1129 1261,-1129 1261,-1302"/>
<text text-anchor="start" x="535" y="-1286.8" font-family="Lucida Console" font-size="14.00">00007ff7`d35f1020 call qword ptr [notepad!_imp_GetCurrentProcessId (00007ff7`d360d138)]</text>
<text text-anchor="start" x="535" y="-1271.8" font-family="Lucida Console" font-size="14.00">00007ff7`d35f1026 mov ecx,800Bh</text>
<text text-anchor="start" x="535" y="-1256.8" font-family="Lucida Console" font-size="14.00">00007ff7`d35f102b mov dword ptr [rsp+30h],r14d</text>
<text text-anchor="start" x="535" y="-1241.8" font-family="Lucida Console" font-size="14.00">00007ff7`d35f1030 lea r9,[notepad!WinEventFunc (00007ff7`d3603d58)]</text>
<text text-anchor="start" x="535" y="-1226.8" font-family="Lucida Console" font-size="14.00">00007ff7`d35f1037 mov edx,ecx</text>
<text text-anchor="start" x="535" y="-1211.8" font-family="Lucida Console" font-size="14.00">00007ff7`d35f1039 xor r8d,r8d</text>
<text text-anchor="start" x="535" y="-1196.8" font-family="Lucida Console" font-size="14.00">00007ff7`d35f103c mov dword ptr [rsp+28h],r14d</text>
<text text-anchor="start" x="535" y="-1181.8" font-family="Lucida Console" font-size="14.00">00007ff7`d35f1041 mov dword ptr [rsp+20h],eax</text>
<text text-anchor="start" x="535" y="-1166.8" font-family="Lucida Console" font-size="14.00">00007ff7`d35f1045 call qword ptr [notepad!_imp_SetWinEventHook (00007ff7`d360d440)]</text>
<text text-anchor="start" x="535" y="-1151.8" font-family="Lucida Console" font-size="14.00">00007ff7`d35f104b mov rbx,rax</text>
<text text-anchor="start" x="535" y="-1136.8" font-family="Lucida Console" font-size="14.00">00007ff7`d35f104e jmp notepad!WinMain+0x165 (00007ff7`d35f1051)</text>
</g>
<!-- notepadWinMain0xb2&#45;&gt;notepadWinMain0xc8 -->
<g id="edge4" class="edge"><title>notepadWinMain0xb2&#45;&gt;notepadWinMain0xc8</title>
<path fill="none" stroke="black" d="M894,-1337.88C894,-1329.77 894,-1321.11 894,-1312.29"/>
<polygon fill="black" stroke="black" points="897.5,-1312.28 894,-1302.28 890.5,-1312.28 897.5,-1312.28"/>
</g>
<!-- notepadWinMain0x1c7 -->
<g id="node18" class="node"><title>notepadWinMain0x1c7</title>
<polygon fill="none" stroke="black" points="1118.5,-215 425.5,-215 425.5,-179 1118.5,-179 1118.5,-215"/>
<text text-anchor="start" x="433.5" y="-193.3" font-family="Lucida Console" font-size="14.00">00007ff7`d35f148a call qword ptr [notepad!_imp_CoUninitialize (00007ff7`d360d688)]</text>
</g>
<!-- notepadWinMain0x1c2&#45;&gt;notepadWinMain0x1c7 -->
<g id="edge47" class="edge"><title>notepadWinMain0x1c2&#45;&gt;notepadWinMain0x1c7</title>
<path fill="none" stroke="black" d="M259.109,-1017.42C245.995,-990.757 223,-944 223,-944 223,-944 204,-769.5 204,-769.5 204,-769.5 204,-769.5 204,-433 204,-433 229,-251 229,-251 229,-251 429.878,-231.393 587.275,-216.03"/>
<polygon fill="black" stroke="black" points="587.964,-219.48 597.577,-215.025 587.284,-212.513 587.964,-219.48"/>
</g>
<!-- notepadWinMain0x165 -->
<g id="node6" class="node"><title>notepadWinMain0x165</title>
<polygon fill="gray" stroke="black" points="1331,-1093 663,-1093 663,-980 1331,-980 1331,-1093"/>
<text text-anchor="start" x="671" y="-1077.8" font-family="Lucida Console" font-size="14.00">00007ff7`d35f1051 lea rcx,[rsp+40h]</text>
<text text-anchor="start" x="671" y="-1062.8" font-family="Lucida Console" font-size="14.00">00007ff7`d35f1056 xor r9d,r9d</text>
<text text-anchor="start" x="671" y="-1047.8" font-family="Lucida Console" font-size="14.00">00007ff7`d35f1059 xor r8d,r8d</text>
<text text-anchor="start" x="671" y="-1032.8" font-family="Lucida Console" font-size="14.00">00007ff7`d35f105c xor edx,edx</text>
<text text-anchor="start" x="671" y="-1017.8" font-family="Lucida Console" font-size="14.00">00007ff7`d35f105e call qword ptr [notepad!_imp_GetMessageW (00007ff7`d360d438)]</text>
<text text-anchor="start" x="671" y="-1002.8" font-family="Lucida Console" font-size="14.00">00007ff7`d35f1064 test eax,eax</text>
<text text-anchor="start" x="671" y="-987.8" font-family="Lucida Console" font-size="14.00">00007ff7`d35f1066 je notepad!WinMain+0x180 (00007ff7`d35f144b)</text>
</g>
<!-- notepadWinMain0xc8&#45;&gt;notepadWinMain0x165 -->
<g id="edge5" class="edge"><title>notepadWinMain0xc8&#45;&gt;notepadWinMain0x165</title>
<path fill="none" stroke="black" d="M943.841,-1128.85C949.155,-1119.72 954.494,-1110.55 959.629,-1101.72"/>
<polygon fill="black" stroke="black" points="962.683,-1103.43 964.688,-1093.03 956.633,-1099.91 962.683,-1103.43"/>
</g>
<!-- notepadWinMain0x180 -->
<g id="node7" class="node"><title>notepadWinMain0x180</title>
<polygon fill="none" stroke="black" points="950,-929 232,-929 232,-876 950,-876 950,-929"/>
<text text-anchor="start" x="240" y="-913.8" font-family="Lucida Console" font-size="14.00">00007ff7`d35f144b mov rcx,qword ptr [notepad!g_PageSetupDlg+0x10 (00007ff7`d36091f0)]</text>
<text text-anchor="start" x="240" y="-898.8" font-family="Lucida Console" font-size="14.00">00007ff7`d35f1452 test rcx,rcx</text>
<text text-anchor="start" x="240" y="-883.8" font-family="Lucida Console" font-size="14.00">00007ff7`d35f1455 jne notepad!WinMain+0x18c (00007ff7`d35f86fa)</text>
</g>
<!-- notepadWinMain0x165&#45;&gt;notepadWinMain0x180 -->
<g id="edge6" class="edge"><title>notepadWinMain0x165&#45;&gt;notepadWinMain0x180</title>
<path fill="none" stroke="black" d="M826.29,-979.998C775.686,-963.546 722.334,-946.2 679.251,-932.192"/>
<polygon fill="black" stroke="black" points="680.25,-928.837 669.657,-929.073 678.085,-935.494 680.25,-928.837"/>
</g>
<!-- notepadWinMain0xf8 -->
<g id="node8" class="node"><title>notepadWinMain0xf8</title>
<polygon fill="none" stroke="black" points="1643,-921.5 1123,-921.5 1123,-883.5 1643,-883.5 1643,-921.5"/>
<text text-anchor="start" x="1131" y="-906.3" font-family="Lucida Console" font-size="14.00">00007ff7`d35f106c cmp dword ptr [rsp+48h],50h</text>
<text text-anchor="start" x="1131" y="-891.3" font-family="Lucida Console" font-size="14.00">00007ff7`d35f1071 je notepad!WinMain+0xff (00007ff7`d35f86c2)</text>
</g>
<!-- notepadWinMain0x165&#45;&gt;notepadWinMain0xf8 -->
<g id="edge7" class="edge"><title>notepadWinMain0x165&#45;&gt;notepadWinMain0xf8</title>
<path fill="none" stroke="black" d="M1159.3,-979.998C1216.23,-960.53 1276.82,-939.812 1320.56,-924.854"/>
<polygon fill="black" stroke="black" points="1321.85,-928.109 1330.18,-921.561 1319.59,-921.486 1321.85,-928.109"/>
</g>
<!-- notepadWinMain0x18c -->
<g id="node14" class="node"><title>notepadWinMain0x18c</title>
<polygon fill="none" stroke="black" points="940,-795 280,-795 280,-742 940,-742 940,-795"/>
<text text-anchor="start" x="288" y="-779.8" font-family="Lucida Console" font-size="14.00">00007ff7`d35f86fa call qword ptr [notepad!_imp_GlobalFree (00007ff7`d360d1a8)]</text>
<text text-anchor="start" x="288" y="-764.8" font-family="Lucida Console" font-size="14.00">00007ff7`d35f8700 nop </text>
<text text-anchor="start" x="288" y="-749.8" font-family="Lucida Console" font-size="14.00">00007ff7`d35f8701 jmp notepad!WinMain+0x192 (00007ff7`d35f145b)</text>
</g>
<!-- notepadWinMain0x180&#45;&gt;notepadWinMain0x18c -->
<g id="edge15" class="edge"><title>notepadWinMain0x180&#45;&gt;notepadWinMain0x18c</title>
<path fill="none" stroke="black" d="M594.708,-875.736C597.599,-855.657 601.645,-827.544 604.85,-805.281"/>
<polygon fill="black" stroke="black" points="608.34,-805.596 606.301,-795.199 601.412,-804.599 608.34,-805.596"/>
</g>
<!-- notepadWinMain0x192 -->
<g id="node15" class="node"><title>notepadWinMain0x192</title>
<polygon fill="none" stroke="black" points="950,-676 232,-676 232,-623 950,-623 950,-676"/>
<text text-anchor="start" x="240" y="-660.8" font-family="Lucida Console" font-size="14.00">00007ff7`d35f145b mov rcx,qword ptr [notepad!g_PageSetupDlg+0x18 (00007ff7`d36091f8)]</text>
<text text-anchor="start" x="240" y="-645.8" font-family="Lucida Console" font-size="14.00">00007ff7`d35f1462 test rcx,rcx</text>
<text text-anchor="start" x="240" y="-630.8" font-family="Lucida Console" font-size="14.00">00007ff7`d35f1465 jne notepad!WinMain+0x19e (00007ff7`d35f8707)</text>
</g>
<!-- notepadWinMain0x180&#45;&gt;notepadWinMain0x192 -->
<g id="edge16" class="edge"><title>notepadWinMain0x180&#45;&gt;notepadWinMain0x192</title>
<path fill="none" stroke="black" d="M484,-875.92C390.973,-853.681 271,-825 271,-825 271,-825 271,-712 271,-712 271,-712 362.929,-694.332 448.243,-677.936"/>
<polygon fill="black" stroke="black" points="448.912,-681.372 458.071,-676.047 447.59,-674.498 448.912,-681.372"/>
</g>
<!-- notepadWinMain0xff -->
<g id="node9" class="node"><title>notepadWinMain0xff</title>
<polygon fill="none" stroke="black" points="1721.5,-825 1044.5,-825 1044.5,-712 1721.5,-712 1721.5,-825"/>
<text text-anchor="start" x="1052.5" y="-809.8" font-family="Lucida Console" font-size="14.00">00007ff7`d35f86c2 mov rcx,qword ptr [notepad!hwndNP (00007ff7`d3609088)]</text>
<text text-anchor="start" x="1052.5" y="-794.8" font-family="Lucida Console" font-size="14.00">00007ff7`d35f86c9 xor r9d,r9d</text>
<text text-anchor="start" x="1052.5" y="-779.8" font-family="Lucida Console" font-size="14.00">00007ff7`d35f86cc xor r8d,r8d</text>
<text text-anchor="start" x="1052.5" y="-764.8" font-family="Lucida Console" font-size="14.00">00007ff7`d35f86cf mov edx,8001h</text>
<text text-anchor="start" x="1052.5" y="-749.8" font-family="Lucida Console" font-size="14.00">00007ff7`d35f86d4 call qword ptr [notepad!_imp_PostMessageW (00007ff7`d360d500)]</text>
<text text-anchor="start" x="1052.5" y="-734.8" font-family="Lucida Console" font-size="14.00">00007ff7`d35f86da nop </text>
<text text-anchor="start" x="1052.5" y="-719.8" font-family="Lucida Console" font-size="14.00">00007ff7`d35f86db jmp notepad!WinMain+0x117 (00007ff7`d35f1077)</text>
</g>
<!-- notepadWinMain0xf8&#45;&gt;notepadWinMain0xff -->
<g id="edge8" class="edge"><title>notepadWinMain0xf8&#45;&gt;notepadWinMain0xff</title>
<path fill="none" stroke="black" d="M1383,-883.423C1383,-870.851 1383,-853.245 1383,-835.627"/>
<polygon fill="black" stroke="black" points="1386.5,-835.291 1383,-825.291 1379.5,-835.291 1386.5,-835.291"/>
</g>
<!-- notepadWinMain0x117 -->
<g id="node10" class="node"><title>notepadWinMain0x117</title>
<polygon fill="none" stroke="black" points="1810.5,-676 1183.5,-676 1183.5,-623 1810.5,-623 1810.5,-676"/>
<text text-anchor="start" x="1191.5" y="-660.8" font-family="Lucida Console" font-size="14.00">00007ff7`d35f1077 mov rcx,qword ptr [notepad!hDlgFind (00007ff7`d3609c88)]</text>
<text text-anchor="start" x="1191.5" y="-645.8" font-family="Lucida Console" font-size="14.00">00007ff7`d35f107e test rcx,rcx</text>
<text text-anchor="start" x="1191.5" y="-630.8" font-family="Lucida Console" font-size="14.00">00007ff7`d35f1081 jne notepad!WinMain+0x123 (00007ff7`d35f86e1)</text>
</g>
<!-- notepadWinMain0xf8&#45;&gt;notepadWinMain0x117 -->
<g id="edge9" class="edge"><title>notepadWinMain0xf8&#45;&gt;notepadWinMain0x117</title>
<path fill="none" stroke="black" d="M1464.79,-883.467C1567.38,-860.851 1730,-825 1730,-825 1730,-825 1730,-712 1730,-712 1730,-712 1664.95,-694.831 1603.59,-678.635"/>
<polygon fill="black" stroke="black" points="1604.35,-675.215 1593.79,-676.047 1602.56,-681.984 1604.35,-675.215"/>
</g>
<!-- notepadWinMain0xff&#45;&gt;notepadWinMain0x117 -->
<g id="edge41" class="edge"><title>notepadWinMain0xff&#45;&gt;notepadWinMain0x117</title>
<path fill="none" stroke="black" d="M1437.33,-711.741C1446.83,-701.993 1456.42,-692.143 1465.06,-683.278"/>
<polygon fill="black" stroke="black" points="1467.6,-685.691 1472.07,-676.086 1462.58,-680.806 1467.6,-685.691"/>
</g>
<!-- notepadWinMain0x123 -->
<g id="node11" class="node"><title>notepadWinMain0x123</title>
<polygon fill="none" stroke="black" points="1812,-587 1102,-587 1102,-519 1812,-519 1812,-587"/>
<text text-anchor="start" x="1110" y="-571.8" font-family="Lucida Console" font-size="14.00">00007ff7`d35f86e1 lea rdx,[rsp+40h]</text>
<text text-anchor="start" x="1110" y="-556.8" font-family="Lucida Console" font-size="14.00">00007ff7`d35f86e6 call qword ptr [notepad!_imp_IsDialogMessageW (00007ff7`d360d430)]</text>
<text text-anchor="start" x="1110" y="-541.8" font-family="Lucida Console" font-size="14.00">00007ff7`d35f86ec test eax,eax</text>
<text text-anchor="start" x="1110" y="-526.8" font-family="Lucida Console" font-size="14.00">00007ff7`d35f86ee je notepad!WinMain+0x132 (00007ff7`d35f1087)</text>
</g>
<!-- notepadWinMain0x117&#45;&gt;notepadWinMain0x123 -->
<g id="edge10" class="edge"><title>notepadWinMain0x117&#45;&gt;notepadWinMain0x123</title>
<path fill="none" stroke="black" d="M1486.07,-622.677C1482.67,-614.651 1478.83,-605.578 1475.08,-596.719"/>
<polygon fill="black" stroke="black" points="1478.2,-595.095 1471.07,-587.251 1471.75,-597.824 1478.2,-595.095"/>
</g>
<!-- notepadWinMain0x132 -->
<g id="node12" class="node"><title>notepadWinMain0x132</title>
<polygon fill="none" stroke="black" points="2311.5,-483 1560.5,-483 1560.5,-385 2311.5,-385 2311.5,-483"/>
<text text-anchor="start" x="1568.5" y="-467.8" font-family="Lucida Console" font-size="14.00">00007ff7`d35f1087 mov rdx,qword ptr [notepad!hAccel (00007ff7`d36090c8)]</text>
<text text-anchor="start" x="1568.5" y="-452.8" font-family="Lucida Console" font-size="14.00">00007ff7`d35f108e mov rcx,qword ptr [notepad!hwndNP (00007ff7`d3609088)]</text>
<text text-anchor="start" x="1568.5" y="-437.8" font-family="Lucida Console" font-size="14.00">00007ff7`d35f1095 lea r8,[rsp+40h]</text>
<text text-anchor="start" x="1568.5" y="-422.8" font-family="Lucida Console" font-size="14.00">00007ff7`d35f109a call qword ptr [notepad!_imp_TranslateAcceleratorW (00007ff7`d360d428)]</text>
<text text-anchor="start" x="1568.5" y="-407.8" font-family="Lucida Console" font-size="14.00">00007ff7`d35f10a0 test eax,eax</text>
<text text-anchor="start" x="1568.5" y="-392.8" font-family="Lucida Console" font-size="14.00">00007ff7`d35f10a2 jne notepad!WinMain+0x165 (00007ff7`d35f1051)</text>
</g>
<!-- notepadWinMain0x117&#45;&gt;notepadWinMain0x132 -->
<g id="edge11" class="edge"><title>notepadWinMain0x117&#45;&gt;notepadWinMain0x132</title>
<path fill="none" stroke="black" d="M1631.59,-622.953C1720.61,-606.056 1821,-587 1821,-587 1821,-587 1864,-519 1864,-519 1864,-519 1874.73,-506.481 1887.91,-491.109"/>
<polygon fill="black" stroke="black" points="1890.68,-493.247 1894.53,-483.376 1885.37,-488.691 1890.68,-493.247"/>
</g>
<!-- notepadWinMain0x123&#45;&gt;notepadWinMain0x132 -->
<g id="edge42" class="edge"><title>notepadWinMain0x123&#45;&gt;notepadWinMain0x132</title>
<path fill="none" stroke="black" d="M1592.34,-518.942C1634.96,-508.532 1683.04,-496.788 1729.44,-485.455"/>
<polygon fill="black" stroke="black" points="1730.43,-488.816 1739.31,-483.043 1728.77,-482.016 1730.43,-488.816"/>
</g>
<!-- notepadWinMain0x136 -->
<g id="node31" class="node"><title>notepadWinMain0x136</title>
<polygon fill="none" stroke="black" points="1542,-452 1006,-452 1006,-416 1542,-416 1542,-452"/>
<text text-anchor="start" x="1014" y="-430.3" font-family="Lucida Console" font-size="14.00">00007ff7`d35f86f4 jmp notepad!WinMain+0x165 (00007ff7`d35f1051)</text>
</g>
<!-- notepadWinMain0x123&#45;&gt;notepadWinMain0x136 -->
<g id="edge43" class="edge"><title>notepadWinMain0x123&#45;&gt;notepadWinMain0x136</title>
<path fill="none" stroke="black" d="M1405.05,-518.785C1374.48,-499.241 1336.62,-475.033 1309.46,-457.672"/>
<polygon fill="black" stroke="black" points="1311,-454.501 1300.69,-452.064 1307.23,-460.399 1311,-454.501"/>
</g>
<!-- notepadWinMain0x132&#45;&gt;notepadWinMain0x165 -->
<g id="edge12" class="edge"><title>notepadWinMain0x132&#45;&gt;notepadWinMain0x165</title>
<path fill="none" stroke="black" d="M1922.91,-483.18C1905.8,-546.149 1878,-648.5 1878,-648.5 1878,-769.5 1878,-769.5 1878,-769.5 1878,-769.5 1652,-944 1652,-944 1652,-944 1499.16,-965.35 1341.15,-987.425"/>
<polygon fill="black" stroke="black" points="1340.64,-983.962 1331.22,-988.812 1341.6,-990.895 1340.64,-983.962"/>
</g>
<!-- notepadWinMain0x14f -->
<g id="node13" class="node"><title>notepadWinMain0x14f</title>
<polygon fill="none" stroke="black" points="1995,-349 1285,-349 1285,-251 1995,-251 1995,-349"/>
<text text-anchor="start" x="1293" y="-333.8" font-family="Lucida Console" font-size="14.00">00007ff7`d35f10a4 lea rcx,[rsp+40h]</text>
<text text-anchor="start" x="1293" y="-318.8" font-family="Lucida Console" font-size="14.00">00007ff7`d35f10a9 call qword ptr [notepad!_imp_TranslateMessage (00007ff7`d360d420)]</text>
<text text-anchor="start" x="1293" y="-303.8" font-family="Lucida Console" font-size="14.00">00007ff7`d35f10af lea rcx,[rsp+40h]</text>
<text text-anchor="start" x="1293" y="-288.8" font-family="Lucida Console" font-size="14.00">00007ff7`d35f10b4 call qword ptr [notepad!_imp_DispatchMessageW (00007ff7`d360d418)]</text>
<text text-anchor="start" x="1293" y="-273.8" font-family="Lucida Console" font-size="14.00">00007ff7`d35f10ba nop </text>
<text text-anchor="start" x="1293" y="-258.8" font-family="Lucida Console" font-size="14.00">00007ff7`d35f10bb jmp notepad!WinMain+0x165 (00007ff7`d35f1051)</text>
</g>
<!-- notepadWinMain0x132&#45;&gt;notepadWinMain0x14f -->
<g id="edge13" class="edge"><title>notepadWinMain0x132&#45;&gt;notepadWinMain0x14f</title>
<path fill="none" stroke="black" d="M1828.3,-384.972C1805.24,-374.689 1780.77,-363.777 1757.37,-353.342"/>
<polygon fill="black" stroke="black" points="1758.67,-350.09 1748.12,-349.214 1755.82,-356.483 1758.67,-350.09"/>
</g>
<!-- notepadWinMain0x14f&#45;&gt;notepadWinMain0x165 -->
<g id="edge14" class="edge"><title>notepadWinMain0x14f&#45;&gt;notepadWinMain0x165</title>
<path fill="none" stroke="black" d="M1284.65,-347.422C1135.94,-366.849 997,-385 997,-385 997,-385 978,-552 978,-552 978,-769.5 978,-769.5 978,-769.5 978,-769.5 986.651,-890.618 992.278,-969.397"/>
<polygon fill="black" stroke="black" points="988.813,-970.012 993.017,-979.738 995.796,-969.514 988.813,-970.012"/>
</g>
<!-- notepadWinMain0x18c&#45;&gt;notepadWinMain0x192 -->
<g id="edge45" class="edge"><title>notepadWinMain0x18c&#45;&gt;notepadWinMain0x192</title>
<path fill="none" stroke="black" d="M605.83,-741.824C603.182,-725.517 599.717,-704.179 596.802,-686.229"/>
<polygon fill="black" stroke="black" points="600.218,-685.426 595.16,-676.116 593.308,-686.548 600.218,-685.426"/>
</g>
<!-- notepadWinMain0x19e -->
<g id="node16" class="node"><title>notepadWinMain0x19e</title>
<polygon fill="none" stroke="black" points="940,-579.5 280,-579.5 280,-526.5 940,-526.5 940,-579.5"/>
<text text-anchor="start" x="288" y="-564.3" font-family="Lucida Console" font-size="14.00">00007ff7`d35f8707 call qword ptr [notepad!_imp_GlobalFree (00007ff7`d360d1a8)]</text>
<text text-anchor="start" x="288" y="-549.3" font-family="Lucida Console" font-size="14.00">00007ff7`d35f870d nop </text>
<text text-anchor="start" x="288" y="-534.3" font-family="Lucida Console" font-size="14.00">00007ff7`d35f870e jmp notepad!WinMain+0x1a4 (00007ff7`d35f146b)</text>
</g>
<!-- notepadWinMain0x192&#45;&gt;notepadWinMain0x19e -->
<g id="edge17" class="edge"><title>notepadWinMain0x192&#45;&gt;notepadWinMain0x19e</title>
<path fill="none" stroke="black" d="M596.192,-622.677C598.223,-612.573 600.589,-600.809 602.781,-589.903"/>
<polygon fill="black" stroke="black" points="606.275,-590.285 604.814,-579.791 599.412,-588.905 606.275,-590.285"/>
</g>
<!-- notepadWinMain0x1a4 -->
<g id="node17" class="node"><title>notepadWinMain0x1a4</title>
<polygon fill="none" stroke="black" points="950,-468 232,-468 232,-400 950,-400 950,-468"/>
<text text-anchor="start" x="240" y="-452.8" font-family="Lucida Console" font-size="14.00">00007ff7`d35f146b mov qword ptr [notepad!g_PageSetupDlg+0x10 (00007ff7`d36091f0)],r14</text>
<text text-anchor="start" x="240" y="-437.8" font-family="Lucida Console" font-size="14.00">00007ff7`d35f1472 mov qword ptr [notepad!g_PageSetupDlg+0x18 (00007ff7`d36091f8)],r14</text>
<text text-anchor="start" x="240" y="-422.8" font-family="Lucida Console" font-size="14.00">00007ff7`d35f1479 test rbx,rbx</text>
<text text-anchor="start" x="240" y="-407.8" font-family="Lucida Console" font-size="14.00">00007ff7`d35f147c je notepad!WinMain+0x1c7 (00007ff7`d35f148a)</text>
</g>
<!-- notepadWinMain0x192&#45;&gt;notepadWinMain0x1a4 -->
<g id="edge18" class="edge"><title>notepadWinMain0x192&#45;&gt;notepadWinMain0x1a4</title>
<path fill="none" stroke="black" d="M458.071,-622.953C370.152,-606.056 271,-587 271,-587 271,-587 271,-519 271,-519 271,-519 368.028,-493.53 455.227,-470.64"/>
<polygon fill="black" stroke="black" points="456.203,-474.003 464.987,-468.078 454.426,-467.232 456.203,-474.003"/>
</g>
<!-- notepadWinMain0x19e&#45;&gt;notepadWinMain0x1a4 -->
<g id="edge46" class="edge"><title>notepadWinMain0x19e&#45;&gt;notepadWinMain0x1a4</title>
<path fill="none" stroke="black" d="M605.83,-526.324C603.554,-512.308 600.675,-494.576 598.06,-478.473"/>
<polygon fill="black" stroke="black" points="601.446,-477.491 596.388,-468.182 594.537,-478.613 601.446,-477.491"/>
</g>
<!-- notepadWinMain0x1a4&#45;&gt;notepadWinMain0x1c7 -->
<g id="edge19" class="edge"><title>notepadWinMain0x1a4&#45;&gt;notepadWinMain0x1c7</title>
<path fill="none" stroke="black" d="M728.183,-399.982C825.902,-376.462 940,-349 940,-349 940,-349 940,-251 940,-251 940,-251 883.278,-233.105 835.751,-218.112"/>
<polygon fill="black" stroke="black" points="836.671,-214.732 826.081,-215.061 834.565,-221.408 836.671,-214.732"/>
</g>
<!-- notepadWinMain0x1b7 -->
<g id="node19" class="node"><title>notepadWinMain0x1b7</title>
<polygon fill="none" stroke="black" points="931.5,-326.5 238.5,-326.5 238.5,-273.5 931.5,-273.5 931.5,-326.5"/>
<text text-anchor="start" x="246.5" y="-311.3" font-family="Lucida Console" font-size="14.00">00007ff7`d35f147e mov rcx,rbx</text>
<text text-anchor="start" x="246.5" y="-296.3" font-family="Lucida Console" font-size="14.00">00007ff7`d35f1481 call qword ptr [notepad!_imp_UnhookWinEvent (00007ff7`d360d410)]</text>
<text text-anchor="start" x="246.5" y="-281.3" font-family="Lucida Console" font-size="14.00">00007ff7`d35f1487 jmp notepad!WinMain+0x1c7 (00007ff7`d35f148a)</text>
</g>
<!-- notepadWinMain0x1a4&#45;&gt;notepadWinMain0x1b7 -->
<g id="edge20" class="edge"><title>notepadWinMain0x1a4&#45;&gt;notepadWinMain0x1b7</title>
<path fill="none" stroke="black" d="M589.486,-399.691C588.615,-380.528 587.52,-356.446 586.63,-336.868"/>
<polygon fill="black" stroke="black" points="590.123,-336.634 586.173,-326.804 583.131,-336.952 590.123,-336.634"/>
</g>
<!-- notepadWinMain0x1cd -->
<g id="node20" class="node"><title>notepadWinMain0x1cd</title>
<polygon fill="none" stroke="black" points="1966,-143 1578,-143 1578,-0 1966,-0 1966,-143"/>
<text text-anchor="start" x="1586" y="-127.8" font-family="Lucida Console" font-size="14.00">00007ff7`d35f1490 mov eax,dword ptr [rsp+50h]</text>
<text text-anchor="start" x="1586" y="-112.8" font-family="Lucida Console" font-size="14.00">00007ff7`d35f1494 lea r11,[rsp+70h]</text>
<text text-anchor="start" x="1586" y="-97.8" font-family="Lucida Console" font-size="14.00">00007ff7`d35f1499 mov rbx,qword ptr [r11+10h]</text>
<text text-anchor="start" x="1586" y="-82.8" font-family="Lucida Console" font-size="14.00">00007ff7`d35f149d mov rbp,qword ptr [r11+18h]</text>
<text text-anchor="start" x="1586" y="-67.8" font-family="Lucida Console" font-size="14.00">00007ff7`d35f14a1 mov rsi,qword ptr [r11+20h]</text>
<text text-anchor="start" x="1586" y="-52.8" font-family="Lucida Console" font-size="14.00">00007ff7`d35f14a5 mov rdi,qword ptr [r11+28h]</text>
<text text-anchor="start" x="1586" y="-37.8" font-family="Lucida Console" font-size="14.00">00007ff7`d35f14a9 mov rsp,r11</text>
<text text-anchor="start" x="1586" y="-22.8" font-family="Lucida Console" font-size="14.00">00007ff7`d35f14ac pop r14</text>
<text text-anchor="start" x="1586" y="-7.8" font-family="Lucida Console" font-size="14.00">00007ff7`d35f14ae ret </text>
</g>
<!-- notepadWinMain0x1c7&#45;&gt;notepadWinMain0x1cd -->
<g id="edge22" class="edge"><title>notepadWinMain0x1c7&#45;&gt;notepadWinMain0x1cd</title>
<path fill="none" stroke="black" d="M909.734,-178.99C1080.03,-157.958 1371.37,-121.978 1567.73,-97.7274"/>
<polygon fill="black" stroke="black" points="1568.39,-101.173 1577.88,-96.4733 1567.53,-94.2254 1568.39,-101.173"/>
</g>
<!-- notepadWinMain0x1b7&#45;&gt;notepadWinMain0x1c7 -->
<g id="edge21" class="edge"><title>notepadWinMain0x1b7&#45;&gt;notepadWinMain0x1c7</title>
<path fill="none" stroke="black" d="M632.672,-273.252C663.136,-256.798 702.224,-235.686 731.241,-220.014"/>
<polygon fill="black" stroke="black" points="733.149,-222.962 740.285,-215.13 729.823,-216.802 733.149,-222.962"/>
</g>
<!-- notepadWinMain -->
<g id="node21" class="node"><title>notepadWinMain</title>
<polygon fill="none" stroke="black" points="2798,-2196 2072,-2196 2072,-1783 2798,-1783 2798,-2196"/>
<text text-anchor="start" x="2080" y="-2180.8" font-family="Lucida Console" font-size="14.00">00007ff7`d35f5f64 mov rax,rsp</text>
<text text-anchor="start" x="2080" y="-2165.8" font-family="Lucida Console" font-size="14.00">00007ff7`d35f5f67 mov qword ptr [rax+8],rbx</text>
<text text-anchor="start" x="2080" y="-2150.8" font-family="Lucida Console" font-size="14.00">00007ff7`d35f5f6b mov qword ptr [rax+10h],rbp</text>
<text text-anchor="start" x="2080" y="-2135.8" font-family="Lucida Console" font-size="14.00">00007ff7`d35f5f6f mov qword ptr [rax+18h],rsi</text>
<text text-anchor="start" x="2080" y="-2120.8" font-family="Lucida Console" font-size="14.00">00007ff7`d35f5f73 mov qword ptr [rax+20h],rdi</text>
<text text-anchor="start" x="2080" y="-2105.8" font-family="Lucida Console" font-size="14.00">00007ff7`d35f5f77 push r14</text>
<text text-anchor="start" x="2080" y="-2090.8" font-family="Lucida Console" font-size="14.00">00007ff7`d35f5f79 sub rsp,70h</text>
<text text-anchor="start" x="2080" y="-2075.8" font-family="Lucida Console" font-size="14.00">00007ff7`d35f5f7d xor r14d,r14d</text>
<text text-anchor="start" x="2080" y="-2060.8" font-family="Lucida Console" font-size="14.00">00007ff7`d35f5f80 mov rbp,rcx</text>
<text text-anchor="start" x="2080" y="-2045.8" font-family="Lucida Console" font-size="14.00">00007ff7`d35f5f83 lea rcx,[rax&#45;30h]</text>
<text text-anchor="start" x="2080" y="-2030.8" font-family="Lucida Console" font-size="14.00">00007ff7`d35f5f87 lea r8d,[r14+28h]</text>
<text text-anchor="start" x="2080" y="-2015.8" font-family="Lucida Console" font-size="14.00">00007ff7`d35f5f8b xor edx,edx</text>
<text text-anchor="start" x="2080" y="-2000.8" font-family="Lucida Console" font-size="14.00">00007ff7`d35f5f8d mov esi,r9d</text>
<text text-anchor="start" x="2080" y="-1985.8" font-family="Lucida Console" font-size="14.00">00007ff7`d35f5f90 mov qword ptr [rax&#45;38h],r14</text>
<text text-anchor="start" x="2080" y="-1970.8" font-family="Lucida Console" font-size="14.00">00007ff7`d35f5f94 call notepad!memset (00007ff7`d35f2204)</text>
<text text-anchor="start" x="2080" y="-1955.8" font-family="Lucida Console" font-size="14.00">00007ff7`d35f5f99 call qword ptr [notepad!_imp_GetCommandLineW (00007ff7`d360d188)]</text>
<text text-anchor="start" x="2080" y="-1940.8" font-family="Lucida Console" font-size="14.00">00007ff7`d35f5f9f lea edx,[r14+1]</text>
<text text-anchor="start" x="2080" y="-1925.8" font-family="Lucida Console" font-size="14.00">00007ff7`d35f5fa3 xor r9d,r9d</text>
<text text-anchor="start" x="2080" y="-1910.8" font-family="Lucida Console" font-size="14.00">00007ff7`d35f5fa6 xor r8d,r8d</text>
<text text-anchor="start" x="2080" y="-1895.8" font-family="Lucida Console" font-size="14.00">00007ff7`d35f5fa9 xor ecx,ecx</text>
<text text-anchor="start" x="2080" y="-1880.8" font-family="Lucida Console" font-size="14.00">00007ff7`d35f5fab mov rbx,rax</text>
<text text-anchor="start" x="2080" y="-1865.8" font-family="Lucida Console" font-size="14.00">00007ff7`d35f5fae call qword ptr [notepad!_imp_HeapSetInformation (00007ff7`d360d150)]</text>
<text text-anchor="start" x="2080" y="-1850.8" font-family="Lucida Console" font-size="14.00">00007ff7`d35f5fb4 lea edx,[r14+2]</text>
<text text-anchor="start" x="2080" y="-1835.8" font-family="Lucida Console" font-size="14.00">00007ff7`d35f5fb8 xor ecx,ecx</text>
<text text-anchor="start" x="2080" y="-1820.8" font-family="Lucida Console" font-size="14.00">00007ff7`d35f5fba call qword ptr [notepad!_imp_CoInitializeEx (00007ff7`d360d690)]</text>
<text text-anchor="start" x="2080" y="-1805.8" font-family="Lucida Console" font-size="14.00">00007ff7`d35f5fc0 test eax,eax</text>
<text text-anchor="start" x="2080" y="-1790.8" font-family="Lucida Console" font-size="14.00">00007ff7`d35f5fc2 js notepad!WinMain+0x1cd (00007ff7`d35f1490)</text>
</g>
<!-- notepadWinMain&#45;&gt;notepadWinMain0x1cd -->
<g id="edge23" class="edge"><title>notepadWinMain&#45;&gt;notepadWinMain0x1cd</title>
<path fill="none" stroke="black" d="M2538.87,-1782.89C2549.79,-1761.28 2557,-1747 2557,-1747 2557,-1747 2586,-1640 2586,-1640 2586,-1640 2586,-1640 2586,-299 2586,-299 2217.27,-196.398 1976.15,-129.306"/>
<polygon fill="black" stroke="black" points="1976.77,-125.845 1966.2,-126.537 1974.89,-132.589 1976.77,-125.845"/>
</g>
<!-- notepadWinMain0x64 -->
<g id="node22" class="node"><title>notepadWinMain0x64</title>
<polygon fill="none" stroke="black" points="2548,-1747 2020,-1747 2020,-1694 2548,-1694 2548,-1747"/>
<text text-anchor="start" x="2028" y="-1731.8" font-family="Lucida Console" font-size="14.00">00007ff7`d35f5fc8 movzx eax,word ptr [rbx]</text>
<text text-anchor="start" x="2028" y="-1716.8" font-family="Lucida Console" font-size="14.00">00007ff7`d35f5fcb mov edi,r14d</text>
<text text-anchor="start" x="2028" y="-1701.8" font-family="Lucida Console" font-size="14.00">00007ff7`d35f5fce jmp notepad!WinMain+0x9b (00007ff7`d35f5fd1)</text>
</g>
<!-- notepadWinMain&#45;&gt;notepadWinMain0x64 -->
<g id="edge24" class="edge"><title>notepadWinMain&#45;&gt;notepadWinMain0x64</title>
<path fill="none" stroke="black" d="M2318.64,-1782.76C2313.12,-1772.99 2308.01,-1763.96 2303.51,-1756"/>
<polygon fill="black" stroke="black" points="2306.48,-1754.15 2298.51,-1747.17 2300.39,-1757.59 2306.48,-1754.15"/>
</g>
<!-- notepadWinMain0x9b -->
<g id="node23" class="node"><title>notepadWinMain0x9b</title>
<polygon fill="none" stroke="black" points="2524,-1658 2004,-1658 2004,-1620 2524,-1620 2524,-1658"/>
<text text-anchor="start" x="2012" y="-1642.8" font-family="Lucida Console" font-size="14.00">00007ff7`d35f5fd1 test ax,ax</text>
<text text-anchor="start" x="2012" y="-1627.8" font-family="Lucida Console" font-size="14.00">00007ff7`d35f5fd4 je notepad!WinMain+0xa0 (00007ff7`d35f6002)</text>
</g>
<!-- notepadWinMain0x64&#45;&gt;notepadWinMain0x9b -->
<g id="edge25" class="edge"><title>notepadWinMain0x64&#45;&gt;notepadWinMain0x9b</title>
<path fill="none" stroke="black" d="M2277.56,-1693.91C2275.48,-1685.65 2273.17,-1676.45 2271.05,-1668.02"/>
<polygon fill="black" stroke="black" points="2274.42,-1667.08 2268.59,-1658.24 2267.63,-1668.79 2274.42,-1667.08"/>
</g>
<!-- notepadWinMain0x9b&#45;&gt;notepadWinMain0xa0 -->
<g id="edge26" class="edge"><title>notepadWinMain0x9b&#45;&gt;notepadWinMain0xa0</title>
<path fill="none" stroke="black" d="M2118.87,-1620C1834.63,-1584.74 1232,-1510 1232,-1510 1232,-1510 1232,-1472 1232,-1472 1232,-1472 1266,-1338 1266,-1338 1266,-1338 1412.51,-1273.74 1492.43,-1238.68"/>
<polygon fill="black" stroke="black" points="1494.08,-1241.78 1501.83,-1234.56 1491.27,-1235.37 1494.08,-1241.78"/>
</g>
<!-- notepadWinMain0x6c -->
<g id="node25" class="node"><title>notepadWinMain0x6c</title>
<polygon fill="none" stroke="black" points="2514,-1584 1994,-1584 1994,-1546 2514,-1546 2514,-1584"/>
<text text-anchor="start" x="2002" y="-1568.8" font-family="Lucida Console" font-size="14.00">00007ff7`d35f5fd6 cmp ax,20h</text>
<text text-anchor="start" x="2002" y="-1553.8" font-family="Lucida Console" font-size="14.00">00007ff7`d35f5fda je notepad!WinMain+0x78 (00007ff7`d35f5ffe)</text>
</g>
<!-- notepadWinMain0x9b&#45;&gt;notepadWinMain0x6c -->
<g id="edge27" class="edge"><title>notepadWinMain0x9b&#45;&gt;notepadWinMain0x6c</title>
<path fill="none" stroke="black" d="M2261.48,-1619.83C2260.41,-1612.13 2259.14,-1602.97 2257.95,-1594.42"/>
<polygon fill="black" stroke="black" points="2261.4,-1593.84 2256.56,-1584.41 2254.47,-1594.8 2261.4,-1593.84"/>
</g>
<!-- notepadWinMain0xa0&#45;&gt;notepadWinMain0xa6 -->
<g id="edge37" class="edge"><title>notepadWinMain0xa0&#45;&gt;notepadWinMain0xa6</title>
<path fill="none" stroke="black" d="M1502.42,-1234.56C1426.37,-1268.4 1270,-1338 1270,-1338 1270,-1338 1270,-1436 1270,-1436 1270,-1436 1348.35,-1454.32 1413.8,-1469.61"/>
<polygon fill="black" stroke="black" points="1413.22,-1473.08 1423.76,-1471.94 1414.82,-1466.26 1413.22,-1473.08"/>
</g>
<!-- notepadWinMain0xa0&#45;&gt;notepadWinMain0xac -->
<g id="edge38" class="edge"><title>notepadWinMain0xa0&#45;&gt;notepadWinMain0xac</title>
<path fill="none" stroke="black" d="M1547.36,-1234.51C1550.24,-1263.99 1550.52,-1322.76 1548.18,-1357.81"/>
<polygon fill="black" stroke="black" points="1544.68,-1357.61 1547.37,-1367.86 1551.66,-1358.17 1544.68,-1357.61"/>
</g>
<!-- notepadWinMain0x78 -->
<g id="node26" class="node"><title>notepadWinMain0x78</title>
<polygon fill="none" stroke="black" points="2353,-1406 1825,-1406 1825,-1368 2353,-1368 2353,-1406"/>
<text text-anchor="start" x="1833" y="-1390.8" font-family="Lucida Console" font-size="14.00">00007ff7`d35f5ffe test edi,edi</text>
<text text-anchor="start" x="1833" y="-1375.8" font-family="Lucida Console" font-size="14.00">00007ff7`d35f6000 jne notepad!WinMain+0x7c (00007ff7`d35f5fe2)</text>
</g>
<!-- notepadWinMain0x6c&#45;&gt;notepadWinMain0x78 -->
<g id="edge28" class="edge"><title>notepadWinMain0x6c&#45;&gt;notepadWinMain0x78</title>
<path fill="none" stroke="black" d="M2164.05,-1545.94C2085.85,-1530.25 1985,-1510 1985,-1510 1985,-1510 1985,-1472 1985,-1472 1985,-1472 2028.09,-1437.2 2058.79,-1412.4"/>
<polygon fill="black" stroke="black" points="2061.11,-1415.03 2066.69,-1406.02 2056.71,-1409.58 2061.11,-1415.03"/>
</g>
<!-- notepadWinMain0x72 -->
<g id="node27" class="node"><title>notepadWinMain0x72</title>
<polygon fill="none" stroke="black" points="2514,-1510 1994,-1510 1994,-1472 2514,-1472 2514,-1510"/>
<text text-anchor="start" x="2002" y="-1494.8" font-family="Lucida Console" font-size="14.00">00007ff7`d35f5fdc cmp ax,9</text>
<text text-anchor="start" x="2002" y="-1479.8" font-family="Lucida Console" font-size="14.00">00007ff7`d35f5fe0 je notepad!WinMain+0x78 (00007ff7`d35f5ffe)</text>
</g>
<!-- notepadWinMain0x6c&#45;&gt;notepadWinMain0x72 -->
<g id="edge29" class="edge"><title>notepadWinMain0x6c&#45;&gt;notepadWinMain0x72</title>
<path fill="none" stroke="black" d="M2254,-1545.83C2254,-1538.13 2254,-1528.97 2254,-1520.42"/>
<polygon fill="black" stroke="black" points="2257.5,-1520.41 2254,-1510.41 2250.5,-1520.41 2257.5,-1520.41"/>
</g>
<!-- notepadWinMain0x78&#45;&gt;notepadWinMain0xa0 -->
<g id="edge36" class="edge"><title>notepadWinMain0x78&#45;&gt;notepadWinMain0xa0</title>
<path fill="none" stroke="black" d="M2030.83,-1367.94C1929.04,-1336.34 1719.18,-1271.19 1610.91,-1237.58"/>
<polygon fill="black" stroke="black" points="1611.67,-1234.15 1601.08,-1234.53 1609.59,-1240.84 1611.67,-1234.15"/>
</g>
<!-- notepadWinMain0x7c -->
<g id="node28" class="node"><title>notepadWinMain0x7c</title>
<polygon fill="none" stroke="black" points="2424,-1234.5 1904,-1234.5 1904,-1196.5 2424,-1196.5 2424,-1234.5"/>
<text text-anchor="start" x="1912" y="-1219.3" font-family="Lucida Console" font-size="14.00">00007ff7`d35f5fe2 cmp ax,22h</text>
<text text-anchor="start" x="1912" y="-1204.3" font-family="Lucida Console" font-size="14.00">00007ff7`d35f5fe6 je notepad!WinMain+0x82 (00007ff7`d35f86b2)</text>
</g>
<!-- notepadWinMain0x78&#45;&gt;notepadWinMain0x7c -->
<g id="edge35" class="edge"><title>notepadWinMain0x78&#45;&gt;notepadWinMain0x7c</title>
<path fill="none" stroke="black" d="M2097.03,-1367.86C2110.16,-1338.17 2136.34,-1279.01 2151.79,-1244.09"/>
<polygon fill="black" stroke="black" points="2155.19,-1245.07 2156.03,-1234.51 2148.78,-1242.24 2155.19,-1245.07"/>
</g>
<!-- notepadWinMain0x72&#45;&gt;notepadWinMain0x78 -->
<g id="edge30" class="edge"><title>notepadWinMain0x72&#45;&gt;notepadWinMain0x78</title>
<path fill="none" stroke="black" d="M2224.88,-1472C2197.72,-1455.21 2157.02,-1430.05 2127.25,-1411.64"/>
<polygon fill="black" stroke="black" points="2128.73,-1408.45 2118.38,-1406.16 2125.05,-1414.4 2128.73,-1408.45"/>
</g>
<!-- notepadWinMain0x72&#45;&gt;notepadWinMain0x7c -->
<g id="edge31" class="edge"><title>notepadWinMain0x72&#45;&gt;notepadWinMain0x7c</title>
<path fill="none" stroke="black" d="M2290.26,-1471.87C2321.64,-1456.18 2362,-1436 2362,-1436 2362,-1436 2362,-1338 2362,-1338 2362,-1338 2260.08,-1275.46 2202.48,-1240.11"/>
<polygon fill="black" stroke="black" points="2204,-1236.94 2193.64,-1234.69 2200.34,-1242.9 2204,-1236.94"/>
</g>
<!-- notepadWinMain0x82 -->
<g id="node29" class="node"><title>notepadWinMain0x82</title>
<polygon fill="none" stroke="black" points="2502,-1078 1974,-1078 1974,-995 2502,-995 2502,-1078"/>
<text text-anchor="start" x="1982" y="-1062.8" font-family="Lucida Console" font-size="14.00">00007ff7`d35f86b2 test edi,edi</text>
<text text-anchor="start" x="1982" y="-1047.8" font-family="Lucida Console" font-size="14.00">00007ff7`d35f86b4 mov eax,r14d</text>
<text text-anchor="start" x="1982" y="-1032.8" font-family="Lucida Console" font-size="14.00">00007ff7`d35f86b7 sete al</text>
<text text-anchor="start" x="1982" y="-1017.8" font-family="Lucida Console" font-size="14.00">00007ff7`d35f86ba mov edi,eax</text>
<text text-anchor="start" x="1982" y="-1002.8" font-family="Lucida Console" font-size="14.00">00007ff7`d35f86bc jmp notepad!WinMain+0x8c (00007ff7`d35f5fec)</text>
</g>
<!-- notepadWinMain0x7c&#45;&gt;notepadWinMain0x82 -->
<g id="edge32" class="edge"><title>notepadWinMain0x7c&#45;&gt;notepadWinMain0x82</title>
<path fill="none" stroke="black" d="M2171.64,-1196.22C2182.25,-1170.85 2201.85,-1123.97 2217.01,-1087.71"/>
<polygon fill="black" stroke="black" points="2220.33,-1088.84 2220.96,-1078.27 2213.87,-1086.14 2220.33,-1088.84"/>
</g>
<!-- notepadWinMain0x8c -->
<g id="node30" class="node"><title>notepadWinMain0x8c</title>
<polygon fill="none" stroke="black" points="2558,-944 1906,-944 1906,-861 2558,-861 2558,-944"/>
<text text-anchor="start" x="1914" y="-928.8" font-family="Lucida Console" font-size="14.00">00007ff7`d35f5fec mov rcx,rbx</text>
<text text-anchor="start" x="1914" y="-913.8" font-family="Lucida Console" font-size="14.00">00007ff7`d35f5fef call qword ptr [notepad!_imp_CharNextW (00007ff7`d360d448)]</text>
<text text-anchor="start" x="1914" y="-898.8" font-family="Lucida Console" font-size="14.00">00007ff7`d35f5ff5 mov rbx,rax</text>
<text text-anchor="start" x="1914" y="-883.8" font-family="Lucida Console" font-size="14.00">00007ff7`d35f5ff8 movzx eax,word ptr [rax]</text>
<text text-anchor="start" x="1914" y="-868.8" font-family="Lucida Console" font-size="14.00">00007ff7`d35f5ffb jmp notepad!WinMain+0x9b (00007ff7`d35f5fd1)</text>
</g>
<!-- notepadWinMain0x7c&#45;&gt;notepadWinMain0x8c -->
<g id="edge33" class="edge"><title>notepadWinMain0x7c&#45;&gt;notepadWinMain0x8c</title>
<path fill="none" stroke="black" d="M2134.21,-1196.31C2078.69,-1162.42 1965,-1093 1965,-1093 1965,-1093 1965,-980 1965,-980 1965,-980 2020.31,-964.153 2080.58,-946.884"/>
<polygon fill="black" stroke="black" points="2081.64,-950.221 2090.29,-944.102 2079.71,-943.492 2081.64,-950.221"/>
</g>
<!-- notepadWinMain0x82&#45;&gt;notepadWinMain0x8c -->
<g id="edge40" class="edge"><title>notepadWinMain0x82&#45;&gt;notepadWinMain0x8c</title>
<path fill="none" stroke="black" d="M2236.15,-994.819C2235.57,-982.021 2234.92,-967.727 2234.31,-954.317"/>
<polygon fill="black" stroke="black" points="2237.8,-954.105 2233.85,-944.274 2230.81,-954.423 2237.8,-954.105"/>
</g>
<!-- notepadWinMain0x8c&#45;&gt;notepadWinMain0x9b -->
<g id="edge34" class="edge"><title>notepadWinMain0x8c&#45;&gt;notepadWinMain0x9b</title>
<path fill="none" stroke="black" d="M2380.08,-944.102C2446.85,-962.412 2511,-980 2511,-980 2511,-980 2542,-1214.5 2542,-1214.5 2542,-1492 2542,-1492 2542,-1492 2542,-1492 2523,-1584 2523,-1584 2523,-1584 2434.06,-1602.54 2360.42,-1617.9"/>
<polygon fill="black" stroke="black" points="2359.68,-1614.48 2350.6,-1619.94 2361.11,-1621.33 2359.68,-1614.48"/>
</g>
<!-- notepadWinMain0x136&#45;&gt;notepadWinMain0x165 -->
<g id="edge44" class="edge"><title>notepadWinMain0x136&#45;&gt;notepadWinMain0x165</title>
<path fill="none" stroke="black" d="M1236.94,-452.201C1183.98,-476.777 1093,-519 1093,-519 1093,-519 1016,-648.5 1016,-648.5 1016,-769.5 1016,-769.5 1016,-769.5 1016,-769.5 1007.35,-890.618 1001.72,-969.397"/>
<polygon fill="black" stroke="black" points="998.204,-969.514 1000.98,-979.738 1005.19,-970.012 998.204,-969.514"/>
</g>
</g>
</svg>
