<?xml version="1.0" encoding="UTF-8" standalone="no"?>
<!DOCTYPE svg PUBLIC "-//W3C//DTD SVG 1.1//EN"
 "http://www.w3.org/Graphics/SVG/1.1/DTD/svg11.dtd">
<!-- Generated by graphviz version 2.38.0 (20140413.2041)
 -->
<!-- Title: windbg_graph Pages: 1 -->
<svg width="1008pt" height="681pt"
 viewBox="0.00 0.00 1007.50 681.00" xmlns="http://www.w3.org/2000/svg" xmlns:xlink="http://www.w3.org/1999/xlink">
<g id="graph0" class="graph" transform="scale(1 1) rotate(0) translate(4 677)">
<title>windbg_graph</title>
<polygon fill="white" stroke="none" points="-4,4 -4,-677 1003.5,-677 1003.5,4 -4,4"/>
<!-- KERNELBASECloseHandle -->
<g id="node1" class="node"><title>KERNELBASECloseHandle</title>
<polygon fill="gray" stroke="black" points="999.5,-673 413.5,-673 413.5,-590 999.5,-590 999.5,-673"/>
<text text-anchor="start" x="421.5" y="-657.8" font-family="Lucida Console" font-size="14.00">00007ffb`2a2f14f0 push rbx</text>
<text text-anchor="start" x="421.5" y="-642.8" font-family="Lucida Console" font-size="14.00">00007ffb`2a2f14f2 sub rsp,20h</text>
<text text-anchor="start" x="421.5" y="-627.8" font-family="Lucida Console" font-size="14.00">00007ffb`2a2f14f6 mov rbx,rcx</text>
<text text-anchor="start" x="421.5" y="-612.8" font-family="Lucida Console" font-size="14.00">00007ffb`2a2f14f9 cmp ecx,0FFFFFFF4h</text>
<text text-anchor="start" x="421.5" y="-597.8" font-family="Lucida Console" font-size="14.00">00007ffb`2a2f14fc jae KERNELBASE!CloseHandle+0x35 (00007ffb`2a2fb44d)</text>
</g>
<!-- KERNELBASECloseHandle0x35 -->
<g id="node2" class="node"><title>KERNELBASECloseHandle0x35</title>
<polygon fill="none" stroke="black" points="816,-554 247,-554 247,-516 816,-516 816,-554"/>
<text text-anchor="start" x="255" y="-538.8" font-family="Lucida Console" font-size="14.00">00007ffb`2a2fb44d cmp ecx,0FFFFFFF6h</text>
<text text-anchor="start" x="255" y="-523.8" font-family="Lucida Console" font-size="14.00">00007ffb`2a2fb450 ja KERNELBASE!CloseHandle+0xe (00007ffb`2a2f1502)</text>
</g>
<!-- KERNELBASECloseHandle&#45;&gt;KERNELBASECloseHandle0x35 -->
<g id="edge1" class="edge"><title>KERNELBASECloseHandle&#45;&gt;KERNELBASECloseHandle0x35</title>
<path fill="none" stroke="black" d="M631.269,-589.875C611.728,-579.323 591.354,-568.321 574.15,-559.031"/>
<polygon fill="black" stroke="black" points="575.406,-555.732 564.944,-554.06 572.08,-561.891 575.406,-555.732"/>
</g>
<!-- KERNELBASECloseHandle0xe -->
<g id="node3" class="node"><title>KERNELBASECloseHandle0xe</title>
<polygon fill="none" stroke="black" points="861.5,-202 201.5,-202 201.5,-134 861.5,-134 861.5,-202"/>
<text text-anchor="start" x="209.5" y="-186.8" font-family="Lucida Console" font-size="14.00">00007ffb`2a2f1502 mov rcx,rbx</text>
<text text-anchor="start" x="209.5" y="-171.8" font-family="Lucida Console" font-size="14.00">00007ffb`2a2f1505 call qword ptr [KERNELBASE!_imp_NtClose (00007ffb`2a3f4038)]</text>
<text text-anchor="start" x="209.5" y="-156.8" font-family="Lucida Console" font-size="14.00">00007ffb`2a2f150b test eax,eax</text>
<text text-anchor="start" x="209.5" y="-141.8" font-family="Lucida Console" font-size="14.00">00007ffb`2a2f150d js KERNELBASE!CloseHandle+0x26 (00007ffb`2a2f1a9d)</text>
</g>
<!-- KERNELBASECloseHandle&#45;&gt;KERNELBASECloseHandle0xe -->
<g id="edge2" class="edge"><title>KERNELBASECloseHandle&#45;&gt;KERNELBASECloseHandle0xe</title>
<path fill="none" stroke="black" d="M769.3,-589.786C797.481,-571.517 824.5,-554 824.5,-554 824.5,-554 881.5,-463 881.5,-463 881.5,-463 881.5,-463 881.5,-389 881.5,-389 829.5,-238 829.5,-238 829.5,-238 757.482,-221.325 684.254,-204.369"/>
<polygon fill="black" stroke="black" points="684.922,-200.931 674.39,-202.085 683.343,-207.751 684.922,-200.931"/>
</g>
<!-- KERNELBASECloseHandle0x35&#45;&gt;KERNELBASECloseHandle0xe -->
<g id="edge5" class="edge"><title>KERNELBASECloseHandle0x35&#45;&gt;KERNELBASECloseHandle0xe</title>
<path fill="none" stroke="black" d="M430.519,-515.944C342.725,-500.246 229.5,-480 229.5,-480 229.5,-480 200.5,-408 200.5,-408 200.5,-408 200.5,-372 200.5,-372 200.5,-372 233.5,-238 233.5,-238 233.5,-238 305.518,-221.325 378.746,-204.369"/>
<polygon fill="black" stroke="black" points="379.657,-207.751 388.61,-202.085 378.078,-200.931 379.657,-207.751"/>
</g>
<!-- KERNELBASECloseHandle0x3e -->
<g id="node6" class="node"><title>KERNELBASECloseHandle0x3e</title>
<polygon fill="none" stroke="black" points="824.5,-480 238.5,-480 238.5,-444 824.5,-444 824.5,-480"/>
<text text-anchor="start" x="246.5" y="-458.3" font-family="Lucida Console" font-size="14.00">00007ffb`2a2fb456 jmp KERNELBASE!CloseHandle+0x3a (00007ffb`2a37c324)</text>
</g>
<!-- KERNELBASECloseHandle0x35&#45;&gt;KERNELBASECloseHandle0x3e -->
<g id="edge6" class="edge"><title>KERNELBASECloseHandle0x35&#45;&gt;KERNELBASECloseHandle0x3e</title>
<path fill="none" stroke="black" d="M531.5,-515.716C531.5,-507.973 531.5,-498.789 531.5,-490.274"/>
<polygon fill="black" stroke="black" points="535,-490.003 531.5,-480.003 528,-490.003 535,-490.003"/>
</g>
<!-- KERNELBASECloseHandle0x26 -->
<g id="node4" class="node"><title>KERNELBASECloseHandle0x26</title>
<polygon fill="none" stroke="black" points="611,-98 0,-98 0,-0 611,-0 611,-98"/>
<text text-anchor="start" x="8" y="-82.8" font-family="Lucida Console" font-size="14.00">00007ffb`2a2f1a9d mov ecx,eax</text>
<text text-anchor="start" x="8" y="-67.8" font-family="Lucida Console" font-size="14.00">00007ffb`2a2f1a9f call KERNELBASE!BaseSetLastNTError (00007ffb`2a2f15d4)</text>
<text text-anchor="start" x="8" y="-52.8" font-family="Lucida Console" font-size="14.00">00007ffb`2a2f1aa4 xor eax,eax</text>
<text text-anchor="start" x="8" y="-37.8" font-family="Lucida Console" font-size="14.00">00007ffb`2a2f1aa6 add rsp,20h</text>
<text text-anchor="start" x="8" y="-22.8" font-family="Lucida Console" font-size="14.00">00007ffb`2a2f1aaa pop rbx</text>
<text text-anchor="start" x="8" y="-7.8" font-family="Lucida Console" font-size="14.00">00007ffb`2a2f1aab ret </text>
</g>
<!-- KERNELBASECloseHandle0xe&#45;&gt;KERNELBASECloseHandle0x26 -->
<g id="edge3" class="edge"><title>KERNELBASECloseHandle0xe&#45;&gt;KERNELBASECloseHandle0x26</title>
<path fill="none" stroke="black" d="M467.644,-133.942C448.883,-124.229 427.877,-113.355 407.366,-102.736"/>
<polygon fill="black" stroke="black" points="408.791,-99.5324 398.301,-98.0431 405.573,-105.749 408.791,-99.5324"/>
</g>
<!-- KERNELBASECloseHandle0x1b -->
<g id="node5" class="node"><title>KERNELBASECloseHandle0x1b</title>
<polygon fill="none" stroke="black" points="885.5,-83 629.5,-83 629.5,-15 885.5,-15 885.5,-83"/>
<text text-anchor="start" x="637.5" y="-67.8" font-family="Lucida Console" font-size="14.00">00007ffb`2a2f1513 mov eax,1</text>
<text text-anchor="start" x="637.5" y="-52.8" font-family="Lucida Console" font-size="14.00">00007ffb`2a2f1518 add rsp,20h</text>
<text text-anchor="start" x="637.5" y="-37.8" font-family="Lucida Console" font-size="14.00">00007ffb`2a2f151c pop rbx</text>
<text text-anchor="start" x="637.5" y="-22.8" font-family="Lucida Console" font-size="14.00">00007ffb`2a2f151d ret </text>
</g>
<!-- KERNELBASECloseHandle0xe&#45;&gt;KERNELBASECloseHandle0x1b -->
<g id="edge4" class="edge"><title>KERNELBASECloseHandle0xe&#45;&gt;KERNELBASECloseHandle0x1b</title>
<path fill="none" stroke="black" d="M595.356,-133.942C623.035,-119.612 655.599,-102.754 684.255,-87.9191"/>
<polygon fill="black" stroke="black" points="686.138,-90.8851 693.41,-83.1794 682.92,-84.6688 686.138,-90.8851"/>
</g>
<!-- KERNELBASECloseHandle0x3a -->
<g id="node7" class="node"><title>KERNELBASECloseHandle0x3a</title>
<polygon fill="none" stroke="black" points="853.5,-408 209.5,-408 209.5,-372 853.5,-372 853.5,-408"/>
<text text-anchor="start" x="217.5" y="-386.3" font-family="Lucida Console" font-size="14.00">00007ffb`2a37c324 jmp KERNELBASE!LocalOpenDynData+0xf9cc (00007ffb`2a399b84)</text>
</g>
<!-- KERNELBASECloseHandle0x3e&#45;&gt;KERNELBASECloseHandle0x3a -->
<g id="edge7" class="edge"><title>KERNELBASECloseHandle0x3e&#45;&gt;KERNELBASECloseHandle0x3a</title>
<path fill="none" stroke="black" d="M531.5,-443.697C531.5,-435.983 531.5,-426.712 531.5,-418.112"/>
<polygon fill="black" stroke="black" points="535,-418.104 531.5,-408.104 528,-418.104 535,-418.104"/>
</g>
<!-- KERNELBASELocalOpenDynData0xf9cc -->
<g id="node8" class="node"><title>KERNELBASELocalOpenDynData0xf9cc</title>
<polygon fill="none" stroke="black" points="820.5,-336 242.5,-336 242.5,-238 820.5,-238 820.5,-336"/>
<text text-anchor="start" x="250.5" y="-320.8" font-family="Lucida Console" font-size="14.00">00007ffb`2a399b84 lea r8,[rsp+30h]</text>
<text text-anchor="start" x="250.5" y="-305.8" font-family="Lucida Console" font-size="14.00">00007ffb`2a399b89 xor edx,edx</text>
<text text-anchor="start" x="250.5" y="-290.8" font-family="Lucida Console" font-size="14.00">00007ffb`2a399b8b call KERNELBASE!SetStdHandleEx (00007ffb`2a3cda50)</text>
<text text-anchor="start" x="250.5" y="-275.8" font-family="Lucida Console" font-size="14.00">00007ffb`2a399b90 test eax,eax</text>
<text text-anchor="start" x="250.5" y="-260.8" font-family="Lucida Console" font-size="14.00">00007ffb`2a399b92 cmovne rbx,qword ptr [rsp+30h]</text>
<text text-anchor="start" x="250.5" y="-245.8" font-family="Lucida Console" font-size="14.00">00007ffb`2a399b98 jmp KERNELBASE!CloseHandle+0xe (00007ffb`2a2f1502)</text>
</g>
<!-- KERNELBASECloseHandle0x3a&#45;&gt;KERNELBASELocalOpenDynData0xf9cc -->
<g id="edge8" class="edge"><title>KERNELBASECloseHandle0x3a&#45;&gt;KERNELBASELocalOpenDynData0xf9cc</title>
<path fill="none" stroke="black" d="M531.5,-371.867C531.5,-364.592 531.5,-355.646 531.5,-346.336"/>
<polygon fill="black" stroke="black" points="535,-346.152 531.5,-336.152 528,-346.152 535,-346.152"/>
</g>
<!-- KERNELBASELocalOpenDynData0xf9cc&#45;&gt;KERNELBASECloseHandle0xe -->
<g id="edge9" class="edge"><title>KERNELBASELocalOpenDynData0xf9cc&#45;&gt;KERNELBASECloseHandle0xe</title>
<path fill="none" stroke="black" d="M531.5,-237.736C531.5,-229.327 531.5,-220.626 531.5,-212.359"/>
<polygon fill="black" stroke="black" points="535,-212.173 531.5,-202.173 528,-212.173 535,-212.173"/>
</g>
</g>
</svg>
