<?xml version="1.0" encoding="UTF-8" standalone="no"?>
<!DOCTYPE svg PUBLIC "-//W3C//DTD SVG 1.1//EN"
 "http://www.w3.org/Graphics/SVG/1.1/DTD/svg11.dtd">
<!-- Generated by graphviz version 2.38.0 (20140413.2041)
 -->
<!-- Title: windbg_graph Pages: 1 -->
<svg width="897pt" height="489pt"
 viewBox="0.00 0.00 897.00 489.00" xmlns="http://www.w3.org/2000/svg" xmlns:xlink="http://www.w3.org/1999/xlink">
<g id="graph0" class="graph" transform="scale(1 1) rotate(0) translate(4 485)">
<title>windbg_graph</title>
<polygon fill="white" stroke="none" points="-4,4 -4,-485 893,-485 893,4 -4,4"/>
<!-- KERNEL32BaseThreadInitThunk -->
<g id="node1" class="node"><title>KERNEL32BaseThreadInitThunk</title>
<polygon fill="none" stroke="black" points="647.5,-481 12.5,-481 12.5,-428 647.5,-428 647.5,-481"/>
<text text-anchor="start" x="20.5" y="-465.8" font-family="Lucida Console" font-size="14.00">00007ffb`2c6e16a0 sub rsp,28h</text>
<text text-anchor="start" x="20.5" y="-450.8" font-family="Lucida Console" font-size="14.00">00007ffb`2c6e16a4 test ecx,ecx</text>
<text text-anchor="start" x="20.5" y="-435.8" font-family="Lucida Console" font-size="14.00">00007ffb`2c6e16a6 jne KERNEL32!BaseThreadInitThunk+0x16 (00007ffb`2c6e16b6)</text>
</g>
<!-- KERNEL32BaseThreadInitThunk0x16 -->
<g id="node2" class="node"><title>KERNEL32BaseThreadInitThunk0x16</title>
<polygon fill="none" stroke="black" points="660,-273 0,-273 0,-235 660,-235 660,-273"/>
<text text-anchor="start" x="8" y="-257.8" font-family="Lucida Console" font-size="14.00">00007ffb`2c6e16b6 test byte ptr [SharedUserData+0x2d0 (00000000`7ffe02d0)],10h</text>
<text text-anchor="start" x="8" y="-242.8" font-family="Lucida Console" font-size="14.00">00007ffb`2c6e16be je KERNEL32!BaseThreadInitThunk+0x29 (00007ffb`2c6e16c9)</text>
</g>
<!-- KERNEL32BaseThreadInitThunk&#45;&gt;KERNEL32BaseThreadInitThunk0x16 -->
<g id="edge1" class="edge"><title>KERNEL32BaseThreadInitThunk&#45;&gt;KERNEL32BaseThreadInitThunk0x16</title>
<path fill="none" stroke="black" d="M256.889,-427.953C208.533,-411.056 154,-392 154,-392 154,-392 154,-309 154,-309 154,-309 211.81,-291.263 261.166,-276.119"/>
<polygon fill="black" stroke="black" points="262.371,-279.411 270.905,-273.131 260.318,-272.719 262.371,-279.411"/>
</g>
<!-- KERNEL32BaseThreadInitThunk0x8 -->
<g id="node3" class="node"><title>KERNEL32BaseThreadInitThunk0x8</title>
<polygon fill="gray" stroke="black" points="889,-392 163,-392 163,-309 889,-309 889,-392"/>
<text text-anchor="start" x="171" y="-376.8" font-family="Lucida Console" font-size="14.00">00007ffb`2c6e16a8 mov rcx,r8</text>
<text text-anchor="start" x="171" y="-361.8" font-family="Lucida Console" font-size="14.00">00007ffb`2c6e16ab call rdx</text>
<text text-anchor="start" x="171" y="-346.8" font-family="Lucida Console" font-size="14.00">00007ffb`2c6e16ad mov ecx,eax</text>
<text text-anchor="start" x="171" y="-331.8" font-family="Lucida Console" font-size="14.00">00007ffb`2c6e16af call qword ptr [KERNEL32!_imp_RtlExitUserThread (00007ffb`2c7fec68)]</text>
<text text-anchor="start" x="171" y="-316.8" font-family="Lucida Console" font-size="14.00">00007ffb`2c6e16b5 int 3</text>
</g>
<!-- KERNEL32BaseThreadInitThunk&#45;&gt;KERNEL32BaseThreadInitThunk0x8 -->
<g id="edge2" class="edge"><title>KERNEL32BaseThreadInitThunk&#45;&gt;KERNEL32BaseThreadInitThunk0x8</title>
<path fill="none" stroke="black" d="M379.206,-427.893C397.381,-418.434 418.563,-407.411 439.087,-396.73"/>
<polygon fill="black" stroke="black" points="440.889,-399.738 448.144,-392.017 437.658,-393.529 440.889,-399.738"/>
</g>
<!-- KERNEL32BaseThreadInitThunk0x29 -->
<g id="node4" class="node"><title>KERNEL32BaseThreadInitThunk0x29</title>
<polygon fill="none" stroke="black" points="481,-110 225,-110 225,-74 481,-74 481,-110"/>
<text text-anchor="start" x="233" y="-88.3" font-family="Lucida Console" font-size="14.00">00007ffb`2c6e16c9 xor eax,eax</text>
</g>
<!-- KERNEL32BaseThreadInitThunk0x16&#45;&gt;KERNEL32BaseThreadInitThunk0x29 -->
<g id="edge4" class="edge"><title>KERNEL32BaseThreadInitThunk0x16&#45;&gt;KERNEL32BaseThreadInitThunk0x29</title>
<path fill="none" stroke="black" d="M276.277,-234.869C229.796,-219.181 170,-199 170,-199 170,-199 170,-146 170,-146 170,-146 232.304,-127.956 284.205,-112.924"/>
<polygon fill="black" stroke="black" points="285.459,-116.205 294.09,-110.061 283.511,-109.481 285.459,-116.205"/>
</g>
<!-- KERNEL32BaseThreadInitThunk0x20 -->
<g id="node5" class="node"><title>KERNEL32BaseThreadInitThunk0x20</title>
<polygon fill="none" stroke="black" points="839,-199 179,-199 179,-146 839,-146 839,-199"/>
<text text-anchor="start" x="187" y="-183.8" font-family="Lucida Console" font-size="14.00">00007ffb`2c6e16c0 call KERNEL32!BasepInitializeTermsrvFpns (00007ffb`2c6e77a0)</text>
<text text-anchor="start" x="187" y="-168.8" font-family="Lucida Console" font-size="14.00">00007ffb`2c6e16c5 test eax,eax</text>
<text text-anchor="start" x="187" y="-153.8" font-family="Lucida Console" font-size="14.00">00007ffb`2c6e16c7 js KERNEL32!BaseThreadInitThunk+0x2b (00007ffb`2c6e16cb)</text>
</g>
<!-- KERNEL32BaseThreadInitThunk0x16&#45;&gt;KERNEL32BaseThreadInitThunk0x20 -->
<g id="edge5" class="edge"><title>KERNEL32BaseThreadInitThunk0x16&#45;&gt;KERNEL32BaseThreadInitThunk0x20</title>
<path fill="none" stroke="black" d="M370.618,-234.96C391.744,-225.577 418.112,-213.866 442.148,-203.191"/>
<polygon fill="black" stroke="black" points="443.86,-206.261 451.578,-199.003 441.019,-199.863 443.86,-206.261"/>
</g>
<!-- KERNEL32BaseThreadInitThunk0x8&#45;&gt;KERNEL32BaseThreadInitThunk0x16 -->
<g id="edge3" class="edge"><title>KERNEL32BaseThreadInitThunk0x8&#45;&gt;KERNEL32BaseThreadInitThunk0x16</title>
<path fill="none" stroke="black" d="M441.741,-308.875C419.45,-298.128 396.191,-286.913 376.702,-277.517"/>
<polygon fill="black" stroke="black" points="377.985,-274.25 367.458,-273.06 374.945,-280.556 377.985,-274.25"/>
</g>
<!-- KERNEL32BaseThreadInitThunk0x2b -->
<g id="node6" class="node"><title>KERNEL32BaseThreadInitThunk0x2b</title>
<polygon fill="none" stroke="black" points="559,-38 303,-38 303,-0 559,-0 559,-38"/>
<text text-anchor="start" x="311" y="-22.8" font-family="Lucida Console" font-size="14.00">00007ffb`2c6e16cb add rsp,28h</text>
<text text-anchor="start" x="311" y="-7.8" font-family="Lucida Console" font-size="14.00">00007ffb`2c6e16cf ret </text>
</g>
<!-- KERNEL32BaseThreadInitThunk0x29&#45;&gt;KERNEL32BaseThreadInitThunk0x2b -->
<g id="edge8" class="edge"><title>KERNEL32BaseThreadInitThunk0x29&#45;&gt;KERNEL32BaseThreadInitThunk0x2b</title>
<path fill="none" stroke="black" d="M371.882,-73.8129C381.46,-65.0944 393.267,-54.3466 403.805,-44.7544"/>
<polygon fill="black" stroke="black" points="406.165,-47.3393 411.204,-38.0196 401.453,-42.1627 406.165,-47.3393"/>
</g>
<!-- KERNEL32BaseThreadInitThunk0x20&#45;&gt;KERNEL32BaseThreadInitThunk0x29 -->
<g id="edge7" class="edge"><title>KERNEL32BaseThreadInitThunk0x20&#45;&gt;KERNEL32BaseThreadInitThunk0x29</title>
<path fill="none" stroke="black" d="M457.92,-145.796C437.912,-135.728 415.212,-124.305 396.056,-114.666"/>
<polygon fill="black" stroke="black" points="397.47,-111.459 386.964,-110.091 394.323,-117.712 397.47,-111.459"/>
</g>
<!-- KERNEL32BaseThreadInitThunk0x20&#45;&gt;KERNEL32BaseThreadInitThunk0x2b -->
<g id="edge6" class="edge"><title>KERNEL32BaseThreadInitThunk0x20&#45;&gt;KERNEL32BaseThreadInitThunk0x2b</title>
<path fill="none" stroke="black" d="M504.008,-145.883C498.379,-116.995 490,-74 490,-74 490,-74 473.82,-59.1909 458.406,-45.0832"/>
<polygon fill="black" stroke="black" points="460.715,-42.4517 450.975,-38.2819 455.988,-47.6154 460.715,-42.4517"/>
</g>
</g>
</svg>
