<?xml version="1.0" encoding="UTF-8" standalone="no"?>
<!DOCTYPE svg PUBLIC "-//W3C//DTD SVG 1.1//EN"
 "http://www.w3.org/Graphics/SVG/1.1/DTD/svg11.dtd">
<!-- Generated by graphviz version 2.38.0 (20140413.2041)
 -->
<!-- Title: windbg_graph Pages: 1 -->
<svg width="736pt" height="271pt"
 viewBox="0.00 0.00 736.00 271.50" xmlns="http://www.w3.org/2000/svg" xmlns:xlink="http://www.w3.org/1999/xlink">
<g id="graph0" class="graph" transform="scale(1 1) rotate(0) translate(4 267.496)">
<title>windbg_graph</title>
<polygon fill="white" stroke="none" points="-4,4 -4,-267.496 732,-267.496 732,4 -4,4"/>
<!-- ntdllKiUserCallbackDispatch -->
<g id="node1" class="node"><title>ntdllKiUserCallbackDispatch</title>
<polygon fill="gray" stroke="black" points="631.5,-263.496 78.5,-263.496 78.5,-90.4957 631.5,-90.4957 631.5,-263.496"/>
<text text-anchor="start" x="86.5" y="-248.296" font-family="Lucida Console" font-size="14.00">00007ffb`2cee3470 mov rcx,qword ptr [rsp+20h]</text>
<text text-anchor="start" x="86.5" y="-233.296" font-family="Lucida Console" font-size="14.00">00007ffb`2cee3475 mov edx,dword ptr [rsp+28h]</text>
<text text-anchor="start" x="86.5" y="-218.296" font-family="Lucida Console" font-size="14.00">00007ffb`2cee3479 mov r8d,dword ptr [rsp+2Ch]</text>
<text text-anchor="start" x="86.5" y="-203.296" font-family="Lucida Console" font-size="14.00">00007ffb`2cee347e mov rax,qword ptr gs:[60h]</text>
<text text-anchor="start" x="86.5" y="-188.296" font-family="Lucida Console" font-size="14.00">00007ffb`2cee3487 mov r9,qword ptr [rax+58h]</text>
<text text-anchor="start" x="86.5" y="-173.296" font-family="Lucida Console" font-size="14.00">00007ffb`2cee348b call qword ptr [r9+r8*8]</text>
<text text-anchor="start" x="86.5" y="-158.296" font-family="Lucida Console" font-size="14.00">00007ffb`2cee348f xor ecx,ecx</text>
<text text-anchor="start" x="86.5" y="-143.296" font-family="Lucida Console" font-size="14.00">00007ffb`2cee3491 xor edx,edx</text>
<text text-anchor="start" x="86.5" y="-128.296" font-family="Lucida Console" font-size="14.00">00007ffb`2cee3493 mov r8d,eax</text>
<text text-anchor="start" x="86.5" y="-113.296" font-family="Lucida Console" font-size="14.00">00007ffb`2cee3496 call ntdll!NtCallbackReturn (00007ffb`2cee16c0)</text>
<text text-anchor="start" x="86.5" y="-98.2957" font-family="Lucida Console" font-size="14.00">00007ffb`2cee349b mov esi,eax</text>
</g>
<!-- ntdllKiUserCallbackDispatcherContinue0xe -->
<g id="node2" class="node"><title>ntdllKiUserCallbackDispatcherContinue0xe</title>
<polygon fill="none" stroke="black" points="710,-54.4957 0,-54.4957 0,-1.49572 710,-1.49572 710,-54.4957"/>
<text text-anchor="start" x="8" y="-39.2957" font-family="Lucida Console" font-size="14.00">00007ffb`2cee349d mov ecx,esi</text>
<text text-anchor="start" x="8" y="-24.2957" font-family="Lucida Console" font-size="14.00">00007ffb`2cee349f call ntdll!RtlRaiseStatus (00007ffb`2cf3c094)</text>
<text text-anchor="start" x="8" y="-9.29572" font-family="Lucida Console" font-size="14.00">00007ffb`2cee34a4 jmp ntdll!KiUserCallbackDispatcherContinue+0xe (00007ffb`2cee349d)</text>
</g>
<!-- ntdllKiUserCallbackDispatch&#45;&gt;ntdllKiUserCallbackDispatcherContinue0xe -->
<g id="edge1" class="edge"><title>ntdllKiUserCallbackDispatch&#45;&gt;ntdllKiUserCallbackDispatcherContinue0xe</title>
<path fill="none" stroke="black" d="M355,-90.4852C355,-81.5399 355,-72.8385 355,-64.9306"/>
<polygon fill="black" stroke="black" points="358.5,-64.6905 355,-54.6905 351.5,-64.6905 358.5,-64.6905"/>
</g>
<!-- ntdllKiUserCallbackDispatcherContinue0xe&#45;&gt;ntdllKiUserCallbackDispatcherContinue0xe -->
<g id="edge2" class="edge"><title>ntdllKiUserCallbackDispatcherContinue0xe&#45;&gt;ntdllKiUserCallbackDispatcherContinue0xe</title>
<path fill="none" stroke="black" d="M537.313,-54.511C636.841,-59.2365 728,-50.3981 728,-27.9957 728,-6.35909 642.966,2.62501 547.486,-1.04344"/>
<polygon fill="black" stroke="black" points="547.154,2.44561 537.313,-1.48045 547.454,-4.54794 547.154,2.44561"/>
</g>
</g>
</svg>
