<?xml version="1.0" encoding="UTF-8" standalone="no"?>
<!DOCTYPE svg PUBLIC "-//W3C//DTD SVG 1.1//EN"
 "http://www.w3.org/Graphics/SVG/1.1/DTD/svg11.dtd">
<!-- Generated by graphviz version 2.38.0 (20140413.2041)
 -->
<!-- Title: windbg_graph Pages: 1 -->
<svg width="1198pt" height="344pt"
 viewBox="0.00 0.00 1197.50 344.00" xmlns="http://www.w3.org/2000/svg" xmlns:xlink="http://www.w3.org/1999/xlink">
<g id="graph0" class="graph" transform="scale(1 1) rotate(0) translate(4 340)">
<title>windbg_graph</title>
<polygon fill="white" stroke="none" points="-4,4 -4,-340 1193.5,-340 1193.5,4 -4,4"/>
<!-- ntdllRtlUserThreadStart -->
<g id="node1" class="node"><title>ntdllRtlUserThreadStart</title>
<polygon fill="none" stroke="black" points="986.5,-336 186.5,-336 186.5,-253 986.5,-253 986.5,-336"/>
<text text-anchor="start" x="194.5" y="-320.8" font-family="Lucida Console" font-size="14.00">00007ffb`2cea43ec sub rsp,48h</text>
<text text-anchor="start" x="194.5" y="-305.8" font-family="Lucida Console" font-size="14.00">00007ffb`2cea43f0 mov r9,rcx</text>
<text text-anchor="start" x="194.5" y="-290.8" font-family="Lucida Console" font-size="14.00">00007ffb`2cea43f3 mov rax,qword ptr [ntdll!Kernel32ThreadInitThunkFunction (00007ffb`2cf7c340)]</text>
<text text-anchor="start" x="194.5" y="-275.8" font-family="Lucida Console" font-size="14.00">00007ffb`2cea43fa test rax,rax</text>
<text text-anchor="start" x="194.5" y="-260.8" font-family="Lucida Console" font-size="14.00">00007ffb`2cea43fd je ntdll!RtlUserThreadStart+0x1f (00007ffb`2cea440b)</text>
</g>
<!-- ntdllRtlUserThreadStart0x1f -->
<g id="node2" class="node"><title>ntdllRtlUserThreadStart0x1f</title>
<polygon fill="none" stroke="black" points="569,-217 0,-217 0,-74 569,-74 569,-217"/>
<text text-anchor="start" x="8" y="-201.8" font-family="Lucida Console" font-size="14.00">00007ffb`2cea440b mov rcx,rdx</text>
<text text-anchor="start" x="8" y="-186.8" font-family="Lucida Console" font-size="14.00">00007ffb`2cea440e call r9</text>
<text text-anchor="start" x="8" y="-171.8" font-family="Lucida Console" font-size="14.00">00007ffb`2cea4411 mov ecx,eax</text>
<text text-anchor="start" x="8" y="-156.8" font-family="Lucida Console" font-size="14.00">00007ffb`2cea4413 call ntdll!RtlExitUserThread (00007ffb`2cea4430)</text>
<text text-anchor="start" x="8" y="-141.8" font-family="Lucida Console" font-size="14.00">00007ffb`2cea4418 nop </text>
<text text-anchor="start" x="8" y="-126.8" font-family="Lucida Console" font-size="14.00">00007ffb`2cea4419 mov edx,eax</text>
<text text-anchor="start" x="8" y="-111.8" font-family="Lucida Console" font-size="14.00">00007ffb`2cea441b or rcx,0FFFFFFFFFFFFFFFFh</text>
<text text-anchor="start" x="8" y="-96.8" font-family="Lucida Console" font-size="14.00">00007ffb`2cea441f call ntdll!NtTerminateProcess (00007ffb`2cee1930)</text>
<text text-anchor="start" x="8" y="-81.8" font-family="Lucida Console" font-size="14.00">00007ffb`2cea4424 nop </text>
</g>
<!-- ntdllRtlUserThreadStart&#45;&gt;ntdllRtlUserThreadStart0x1f -->
<g id="edge1" class="edge"><title>ntdllRtlUserThreadStart&#45;&gt;ntdllRtlUserThreadStart0x1f</title>
<path fill="none" stroke="black" d="M503.178,-252.942C483.076,-243.158 460.957,-232.391 438.744,-221.579"/>
<polygon fill="black" stroke="black" points="440.085,-218.339 429.562,-217.11 437.022,-224.633 440.085,-218.339"/>
</g>
<!-- ntdllRtlUserThreadStart0x13 -->
<g id="node3" class="node"><title>ntdllRtlUserThreadStart0x13</title>
<polygon fill="gray" stroke="black" points="1189.5,-187 587.5,-187 587.5,-104 1189.5,-104 1189.5,-187"/>
<text text-anchor="start" x="595.5" y="-171.8" font-family="Lucida Console" font-size="14.00">00007ffb`2cea43ff mov r8,rdx</text>
<text text-anchor="start" x="595.5" y="-156.8" font-family="Lucida Console" font-size="14.00">00007ffb`2cea4402 mov rdx,rcx</text>
<text text-anchor="start" x="595.5" y="-141.8" font-family="Lucida Console" font-size="14.00">00007ffb`2cea4405 xor ecx,ecx</text>
<text text-anchor="start" x="595.5" y="-126.8" font-family="Lucida Console" font-size="14.00">00007ffb`2cea4407 call rax</text>
<text text-anchor="start" x="595.5" y="-111.8" font-family="Lucida Console" font-size="14.00">00007ffb`2cea4409 jmp ntdll!RtlUserThreadStart+0x39 (00007ffb`2cea4425)</text>
</g>
<!-- ntdllRtlUserThreadStart&#45;&gt;ntdllRtlUserThreadStart0x13 -->
<g id="edge2" class="edge"><title>ntdllRtlUserThreadStart&#45;&gt;ntdllRtlUserThreadStart0x13</title>
<path fill="none" stroke="black" d="M669.822,-252.942C709.021,-233.862 755.892,-211.048 796.169,-191.443"/>
<polygon fill="black" stroke="black" points="797.728,-194.576 805.188,-187.053 794.665,-188.282 797.728,-194.576"/>
</g>
<!-- ntdllRtlUserThreadStart0x39 -->
<g id="node4" class="node"><title>ntdllRtlUserThreadStart0x39</title>
<polygon fill="none" stroke="black" points="714.5,-38 458.5,-38 458.5,-0 714.5,-0 714.5,-38"/>
<text text-anchor="start" x="466.5" y="-22.8" font-family="Lucida Console" font-size="14.00">00007ffb`2cea4425 add rsp,48h</text>
<text text-anchor="start" x="466.5" y="-7.8" font-family="Lucida Console" font-size="14.00">00007ffb`2cea4429 ret </text>
</g>
<!-- ntdllRtlUserThreadStart0x1f&#45;&gt;ntdllRtlUserThreadStart0x39 -->
<g id="edge4" class="edge"><title>ntdllRtlUserThreadStart0x1f&#45;&gt;ntdllRtlUserThreadStart0x39</title>
<path fill="none" stroke="black" d="M455.795,-73.8834C483.859,-62.3139 510.971,-51.137 533.157,-41.9908"/>
<polygon fill="black" stroke="black" points="534.759,-45.1163 542.67,-38.0691 532.091,-38.6446 534.759,-45.1163"/>
</g>
<!-- ntdllRtlUserThreadStart0x13&#45;&gt;ntdllRtlUserThreadStart0x39 -->
<g id="edge3" class="edge"><title>ntdllRtlUserThreadStart0x13&#45;&gt;ntdllRtlUserThreadStart0x39</title>
<path fill="none" stroke="black" d="M790.032,-103.906C740.049,-83.3009 681.294,-59.079 639.794,-41.9707"/>
<polygon fill="black" stroke="black" points="641.002,-38.6829 630.423,-38.1073 638.334,-45.1545 641.002,-38.6829"/>
</g>
</g>
</svg>
