<?xml version="1.0" encoding="UTF-8" standalone="no"?>
<!DOCTYPE svg PUBLIC "-//W3C//DTD SVG 1.1//EN"
 "http://www.w3.org/Graphics/SVG/1.1/DTD/svg11.dtd">
<!-- Generated by graphviz version 2.38.0 (20140413.2041)
 -->
<!-- Title: windbg_graph Pages: 1 -->
<svg width="1812pt" height="2424pt"
 viewBox="0.00 0.00 1811.50 2424.00" xmlns="http://www.w3.org/2000/svg" xmlns:xlink="http://www.w3.org/1999/xlink">
<g id="graph0" class="graph" transform="scale(1 1) rotate(0) translate(4 2420)">
<title>windbg_graph</title>
<polygon fill="white" stroke="none" points="-4,4 -4,-2420 1807.5,-2420 1807.5,4 -4,4"/>
<!-- tiptsfCARET::ProcessCaretEvents -->
<g id="node1" class="node"><title>tiptsfCARET::ProcessCaretEvents</title>
<polygon fill="none" stroke="black" points="689,-2416 4,-2416 4,-2228 689,-2228 689,-2416"/>
<text text-anchor="start" x="12" y="-2400.8" font-family="Lucida Console" font-size="14.00">00007ffb`1f501af0 push rbx</text>
<text text-anchor="start" x="12" y="-2385.8" font-family="Lucida Console" font-size="14.00">00007ffb`1f501af2 push rsi</text>
<text text-anchor="start" x="12" y="-2370.8" font-family="Lucida Console" font-size="14.00">00007ffb`1f501af3 push rdi</text>
<text text-anchor="start" x="12" y="-2355.8" font-family="Lucida Console" font-size="14.00">00007ffb`1f501af4 sub rsp,90h</text>
<text text-anchor="start" x="12" y="-2340.8" font-family="Lucida Console" font-size="14.00">00007ffb`1f501afb mov rax,qword ptr [tiptsf!_security_cookie (00007ffb`1f574788)]</text>
<text text-anchor="start" x="12" y="-2325.8" font-family="Lucida Console" font-size="14.00">00007ffb`1f501b02 xor rax,rsp</text>
<text text-anchor="start" x="12" y="-2310.8" font-family="Lucida Console" font-size="14.00">00007ffb`1f501b05 mov qword ptr [rsp+80h],rax</text>
<text text-anchor="start" x="12" y="-2295.8" font-family="Lucida Console" font-size="14.00">00007ffb`1f501b0d cmp dword ptr [tiptsf!g_eDllCapability (00007ffb`1f574390)],2</text>
<text text-anchor="start" x="12" y="-2280.8" font-family="Lucida Console" font-size="14.00">00007ffb`1f501b14 mov esi,r9d</text>
<text text-anchor="start" x="12" y="-2265.8" font-family="Lucida Console" font-size="14.00">00007ffb`1f501b17 mov rdi,r8</text>
<text text-anchor="start" x="12" y="-2250.8" font-family="Lucida Console" font-size="14.00">00007ffb`1f501b1a mov ebx,edx</text>
<text text-anchor="start" x="12" y="-2235.8" font-family="Lucida Console" font-size="14.00">00007ffb`1f501b1c jne tiptsf!CARET::ProcessCaretEvents+0xa2 (00007ffb`1f501b96)</text>
</g>
<!-- tiptsfCARET::ProcessCaretEvents0xa2 -->
<g id="node2" class="node"><title>tiptsfCARET::ProcessCaretEvents0xa2</title>
<polygon fill="none" stroke="black" points="611,-128 0,-128 0,-0 611,-0 611,-128"/>
<text text-anchor="start" x="8" y="-112.8" font-family="Lucida Console" font-size="14.00">00007ffb`1f501b96 mov rcx,qword ptr [rsp+80h]</text>
<text text-anchor="start" x="8" y="-97.8" font-family="Lucida Console" font-size="14.00">00007ffb`1f501b9e xor rcx,rsp</text>
<text text-anchor="start" x="8" y="-82.8" font-family="Lucida Console" font-size="14.00">00007ffb`1f501ba1 call tiptsf!_security_check_cookie (00007ffb`1f5011a0)</text>
<text text-anchor="start" x="8" y="-67.8" font-family="Lucida Console" font-size="14.00">00007ffb`1f501ba6 add rsp,90h</text>
<text text-anchor="start" x="8" y="-52.8" font-family="Lucida Console" font-size="14.00">00007ffb`1f501bad pop rdi</text>
<text text-anchor="start" x="8" y="-37.8" font-family="Lucida Console" font-size="14.00">00007ffb`1f501bae pop rsi</text>
<text text-anchor="start" x="8" y="-22.8" font-family="Lucida Console" font-size="14.00">00007ffb`1f501baf pop rbx</text>
<text text-anchor="start" x="8" y="-7.8" font-family="Lucida Console" font-size="14.00">00007ffb`1f501bb0 ret </text>
</g>
<!-- tiptsfCARET::ProcessCaretEvents&#45;&gt;tiptsfCARET::ProcessCaretEvents0xa2 -->
<g id="edge1" class="edge"><title>tiptsfCARET::ProcessCaretEvents&#45;&gt;tiptsfCARET::ProcessCaretEvents0xa2</title>
<path fill="none" stroke="black" d="M220.969,-2227.93C193.53,-2207.59 172.5,-2192 172.5,-2192 172.5,-2192 153.5,-2092.5 153.5,-2092.5 153.5,-2092.5 153.5,-2092.5 153.5,-316 153.5,-316 207.5,-164 207.5,-164 207.5,-164 219.663,-151.713 235.419,-135.796"/>
<polygon fill="black" stroke="black" points="238.333,-137.828 242.88,-128.259 233.358,-132.903 238.333,-137.828"/>
</g>
<!-- tiptsfCARET::ProcessCaretEvents0x2e -->
<g id="node3" class="node"><title>tiptsfCARET::ProcessCaretEvents0x2e</title>
<polygon fill="none" stroke="black" points="899.5,-2192 181.5,-2192 181.5,-2154 899.5,-2154 899.5,-2192"/>
<text text-anchor="start" x="189.5" y="-2176.8" font-family="Lucida Console" font-size="14.00">00007ffb`1f501b1e cmp byte ptr [tiptsf!g_fIgnoreAllCaretEvents (00007ffb`1f574368)],0</text>
<text text-anchor="start" x="189.5" y="-2161.8" font-family="Lucida Console" font-size="14.00">00007ffb`1f501b25 jne tiptsf!CARET::ProcessCaretEvents+0x190 (00007ffb`1f53b55c)</text>
</g>
<!-- tiptsfCARET::ProcessCaretEvents&#45;&gt;tiptsfCARET::ProcessCaretEvents0x2e -->
<g id="edge2" class="edge"><title>tiptsfCARET::ProcessCaretEvents&#45;&gt;tiptsfCARET::ProcessCaretEvents0x2e</title>
<path fill="none" stroke="black" d="M469.363,-2227.9C483.625,-2217.1 497.081,-2206.9 508.373,-2198.34"/>
<polygon fill="black" stroke="black" points="510.706,-2200.97 516.563,-2192.14 506.479,-2195.39 510.706,-2200.97"/>
</g>
<!-- tiptsfCARET::ProcessCaretEvents0x190 -->
<g id="node4" class="node"><title>tiptsfCARET::ProcessCaretEvents0x190</title>
<polygon fill="none" stroke="black" points="862.5,-1836 194.5,-1836 194.5,-1798 862.5,-1798 862.5,-1836"/>
<text text-anchor="start" x="202.5" y="-1820.8" font-family="Lucida Console" font-size="14.00">00007ffb`1f53b55c xor cl,cl</text>
<text text-anchor="start" x="202.5" y="-1805.8" font-family="Lucida Console" font-size="14.00">00007ffb`1f53b55e jmp tiptsf!CARET::ProcessCaretEvents+0x57 (00007ffb`1f501b47)</text>
</g>
<!-- tiptsfCARET::ProcessCaretEvents0x2e&#45;&gt;tiptsfCARET::ProcessCaretEvents0x190 -->
<g id="edge3" class="edge"><title>tiptsfCARET::ProcessCaretEvents0x2e&#45;&gt;tiptsfCARET::ProcessCaretEvents0x190</title>
<path fill="none" stroke="black" d="M477.972,-2153.94C423.609,-2138.25 353.5,-2118 353.5,-2118 353.5,-2118 353.5,-1946 353.5,-1946 353.5,-1946 444.702,-1879.29 495.426,-1842.19"/>
<polygon fill="black" stroke="black" points="497.793,-1844.8 503.798,-1836.07 493.66,-1839.15 497.793,-1844.8"/>
</g>
<!-- tiptsfCARET::ProcessCaretEvents0x3b -->
<g id="node5" class="node"><title>tiptsfCARET::ProcessCaretEvents0x3b</title>
<polygon fill="none" stroke="black" points="1064,-2118 363,-2118 363,-2065 1064,-2065 1064,-2118"/>
<text text-anchor="start" x="371" y="-2102.8" font-family="Lucida Console" font-size="14.00">00007ffb`1f501b2b mov rax,qword ptr [tiptsf!g_SharedMemory+0x8 (00007ffb`1f5759f8)]</text>
<text text-anchor="start" x="371" y="-2087.8" font-family="Lucida Console" font-size="14.00">00007ffb`1f501b32 test rax,rax</text>
<text text-anchor="start" x="371" y="-2072.8" font-family="Lucida Console" font-size="14.00">00007ffb`1f501b35 je tiptsf!CARET::ProcessCaretEvents+0x174 (00007ffb`1f53ad2e)</text>
</g>
<!-- tiptsfCARET::ProcessCaretEvents0x2e&#45;&gt;tiptsfCARET::ProcessCaretEvents0x3b -->
<g id="edge4" class="edge"><title>tiptsfCARET::ProcessCaretEvents0x2e&#45;&gt;tiptsfCARET::ProcessCaretEvents0x3b</title>
<path fill="none" stroke="black" d="M579.756,-2153.96C600.175,-2144.58 625.659,-2132.87 648.889,-2122.19"/>
<polygon fill="black" stroke="black" points="650.378,-2125.36 658.003,-2118 647.455,-2119 650.378,-2125.36"/>
</g>
<!-- tiptsfCARET::ProcessCaretEvents0x190&#45;&gt;tiptsfCARET::ProcessCaretEvents0x190 -->
<g id="edge41" class="edge"><title>tiptsfCARET::ProcessCaretEvents0x190&#45;&gt;tiptsfCARET::ProcessCaretEvents0x190</title>
<path fill="none" stroke="black" d="M862.708,-1824.68C874.032,-1822.63 880.5,-1820.07 880.5,-1817 880.5,-1814.98 877.715,-1813.19 872.599,-1811.61"/>
<polygon fill="black" stroke="black" points="873.24,-1808.17 862.708,-1809.32 871.657,-1814.99 873.24,-1808.17"/>
</g>
<!-- tiptsfCARET::ProcessCaretEvents0x57 -->
<g id="node9" class="node"><title>tiptsfCARET::ProcessCaretEvents0x57</title>
<polygon fill="none" stroke="black" points="1075,-1762 398,-1762 398,-1724 1075,-1724 1075,-1762"/>
<text text-anchor="start" x="406" y="-1746.8" font-family="Lucida Console" font-size="14.00">00007ffb`1f501b47 cmp byte ptr [tiptsf!g_fDoInProcCheck (00007ffb`1f574369)],0</text>
<text text-anchor="start" x="406" y="-1731.8" font-family="Lucida Console" font-size="14.00">00007ffb`1f501b4e jne tiptsf!CARET::ProcessCaretEvents+0x14f (00007ffb`1f501c0d)</text>
</g>
<!-- tiptsfCARET::ProcessCaretEvents0x190&#45;&gt;tiptsfCARET::ProcessCaretEvents0x57 -->
<g id="edge46" class="edge"><title>tiptsfCARET::ProcessCaretEvents0x190&#45;&gt;tiptsfCARET::ProcessCaretEvents0x57</title>
<path fill="none" stroke="black" d="M580.719,-1797.92C609.277,-1788.04 644.83,-1775.73 674.757,-1765.37"/>
<polygon fill="black" stroke="black" points="675.955,-1768.66 684.26,-1762.08 673.665,-1762.05 675.955,-1768.66"/>
</g>
<!-- tiptsfCARET::ProcessCaretEvents0x174 -->
<g id="node6" class="node"><title>tiptsfCARET::ProcessCaretEvents0x174</title>
<polygon fill="none" stroke="black" points="1064,-2029 363,-2029 363,-1946 1064,-1946 1064,-2029"/>
<text text-anchor="start" x="371" y="-2013.8" font-family="Lucida Console" font-size="14.00">00007ffb`1f53ad2e lea rcx,[tiptsf!g_SharedMemory (00007ffb`1f5759f0)]</text>
<text text-anchor="start" x="371" y="-1998.8" font-family="Lucida Console" font-size="14.00">00007ffb`1f53ad35 call tiptsf!CTipSharedMemory::Open (00007ffb`1f502318)</text>
<text text-anchor="start" x="371" y="-1983.8" font-family="Lucida Console" font-size="14.00">00007ffb`1f53ad3a mov rax,qword ptr [tiptsf!g_SharedMemory+0x8 (00007ffb`1f5759f8)]</text>
<text text-anchor="start" x="371" y="-1968.8" font-family="Lucida Console" font-size="14.00">00007ffb`1f53ad41 test rax,rax</text>
<text text-anchor="start" x="371" y="-1953.8" font-family="Lucida Console" font-size="14.00">00007ffb`1f53ad44 jne tiptsf!CARET::ProcessCaretEvents+0x4b (00007ffb`1f501b3b)</text>
</g>
<!-- tiptsfCARET::ProcessCaretEvents0x3b&#45;&gt;tiptsfCARET::ProcessCaretEvents0x174 -->
<g id="edge5" class="edge"><title>tiptsfCARET::ProcessCaretEvents0x3b&#45;&gt;tiptsfCARET::ProcessCaretEvents0x174</title>
<path fill="none" stroke="black" d="M713.5,-2064.76C713.5,-2057.04 713.5,-2048.29 713.5,-2039.53"/>
<polygon fill="black" stroke="black" points="717,-2039.32 713.5,-2029.32 710,-2039.32 717,-2039.32"/>
</g>
<!-- tiptsfCARET::ProcessCaretEvents0x4b -->
<g id="node7" class="node"><title>tiptsfCARET::ProcessCaretEvents0x4b</title>
<polygon fill="none" stroke="black" points="1304.5,-1910 636.5,-1910 636.5,-1872 1304.5,-1872 1304.5,-1910"/>
<text text-anchor="start" x="644.5" y="-1894.8" font-family="Lucida Console" font-size="14.00">00007ffb`1f501b3b cmp dword ptr [rax+2Ch],0</text>
<text text-anchor="start" x="644.5" y="-1879.8" font-family="Lucida Console" font-size="14.00">00007ffb`1f501b3f je tiptsf!CARET::ProcessCaretEvents+0x190 (00007ffb`1f53b55c)</text>
</g>
<!-- tiptsfCARET::ProcessCaretEvents0x3b&#45;&gt;tiptsfCARET::ProcessCaretEvents0x4b -->
<g id="edge6" class="edge"><title>tiptsfCARET::ProcessCaretEvents0x3b&#45;&gt;tiptsfCARET::ProcessCaretEvents0x4b</title>
<path fill="none" stroke="black" d="M862.37,-2065C961.069,-2048.09 1072.5,-2029 1072.5,-2029 1072.5,-2029 1072.5,-1946 1072.5,-1946 1072.5,-1946 1041.46,-1929.57 1013.63,-1914.83"/>
<polygon fill="black" stroke="black" points="1015.22,-1911.72 1004.75,-1910.13 1011.95,-1917.9 1015.22,-1911.72"/>
</g>
<!-- tiptsfCARET::ProcessCaretEvents0x174&#45;&gt;tiptsfCARET::ProcessCaretEvents0x190 -->
<g id="edge40" class="edge"><title>tiptsfCARET::ProcessCaretEvents0x174&#45;&gt;tiptsfCARET::ProcessCaretEvents0x190</title>
<path fill="none" stroke="black" d="M667.73,-1945.79C647.192,-1927.52 627.5,-1910 627.5,-1910 627.5,-1910 584.87,-1870.38 555.558,-1843.15"/>
<polygon fill="black" stroke="black" points="557.767,-1840.42 548.059,-1836.18 553.002,-1845.55 557.767,-1840.42"/>
</g>
<!-- tiptsfCARET::ProcessCaretEvents0x174&#45;&gt;tiptsfCARET::ProcessCaretEvents0x4b -->
<g id="edge39" class="edge"><title>tiptsfCARET::ProcessCaretEvents0x174&#45;&gt;tiptsfCARET::ProcessCaretEvents0x4b</title>
<path fill="none" stroke="black" d="M823.983,-1945.88C854.141,-1934.79 885.651,-1923.2 911.688,-1913.63"/>
<polygon fill="black" stroke="black" points="913.207,-1916.8 921.385,-1910.06 910.791,-1910.23 913.207,-1916.8"/>
</g>
<!-- tiptsfCARET::ProcessCaretEvents0x4b&#45;&gt;tiptsfCARET::ProcessCaretEvents0x190 -->
<g id="edge7" class="edge"><title>tiptsfCARET::ProcessCaretEvents0x4b&#45;&gt;tiptsfCARET::ProcessCaretEvents0x190</title>
<path fill="none" stroke="black" d="M859.82,-1871.97C795.731,-1861.53 714.993,-1848.38 649.265,-1837.67"/>
<polygon fill="black" stroke="black" points="649.698,-1834.2 639.265,-1836.04 648.572,-1841.11 649.698,-1834.2"/>
</g>
<!-- tiptsfCARET::ProcessCaretEvents0x55 -->
<g id="node8" class="node"><title>tiptsfCARET::ProcessCaretEvents0x55</title>
<polygon fill="none" stroke="black" points="1130,-1835 899,-1835 899,-1799 1130,-1799 1130,-1835"/>
<text text-anchor="start" x="907" y="-1813.3" font-family="Lucida Console" font-size="14.00">00007ffb`1f501b45 mov cl,1</text>
</g>
<!-- tiptsfCARET::ProcessCaretEvents0x4b&#45;&gt;tiptsfCARET::ProcessCaretEvents0x55 -->
<g id="edge8" class="edge"><title>tiptsfCARET::ProcessCaretEvents0x4b&#45;&gt;tiptsfCARET::ProcessCaretEvents0x55</title>
<path fill="none" stroke="black" d="M981.603,-1871.83C986.72,-1863.46 992.89,-1853.36 998.496,-1844.19"/>
<polygon fill="black" stroke="black" points="1001.63,-1845.78 1003.86,-1835.42 995.655,-1842.13 1001.63,-1845.78"/>
</g>
<!-- tiptsfCARET::ProcessCaretEvents0x55&#45;&gt;tiptsfCARET::ProcessCaretEvents0x57 -->
<g id="edge9" class="edge"><title>tiptsfCARET::ProcessCaretEvents0x55&#45;&gt;tiptsfCARET::ProcessCaretEvents0x57</title>
<path fill="none" stroke="black" d="M948.618,-1798.94C908.929,-1788.66 858.123,-1775.5 816.184,-1764.64"/>
<polygon fill="black" stroke="black" points="816.836,-1761.19 806.278,-1762.07 815.081,-1767.97 816.836,-1761.19"/>
</g>
<!-- tiptsfCARET::ProcessCaretEvents0x14f -->
<g id="node10" class="node"><title>tiptsfCARET::ProcessCaretEvents0x14f</title>
<polygon fill="none" stroke="black" points="1277,-1688 576,-1688 576,-1635 1277,-1635 1277,-1688"/>
<text text-anchor="start" x="584" y="-1672.8" font-family="Lucida Console" font-size="14.00">00007ffb`1f501c0d mov eax,dword ptr [tiptsf!g_dwMainUIThreadId (00007ffb`1f5743e8)]</text>
<text text-anchor="start" x="584" y="-1657.8" font-family="Lucida Console" font-size="14.00">00007ffb`1f501c13 cmp dword ptr [rsp+0D8h],eax</text>
<text text-anchor="start" x="584" y="-1642.8" font-family="Lucida Console" font-size="14.00">00007ffb`1f501c1a jne tiptsf!CARET::ProcessCaretEvents+0x64 (00007ffb`1f501b54)</text>
</g>
<!-- tiptsfCARET::ProcessCaretEvents0x57&#45;&gt;tiptsfCARET::ProcessCaretEvents0x14f -->
<g id="edge10" class="edge"><title>tiptsfCARET::ProcessCaretEvents0x57&#45;&gt;tiptsfCARET::ProcessCaretEvents0x14f</title>
<path fill="none" stroke="black" d="M779.614,-1723.96C802.237,-1714.49 830.523,-1702.66 856.216,-1691.91"/>
<polygon fill="black" stroke="black" points="857.676,-1695.09 865.55,-1688 854.974,-1688.63 857.676,-1695.09"/>
</g>
<!-- tiptsfCARET::ProcessCaretEvents0x64 -->
<g id="node11" class="node"><title>tiptsfCARET::ProcessCaretEvents0x64</title>
<polygon fill="none" stroke="black" points="877.5,-1599 217.5,-1599 217.5,-1561 877.5,-1561 877.5,-1599"/>
<text text-anchor="start" x="225.5" y="-1583.8" font-family="Lucida Console" font-size="14.00">00007ffb`1f501b54 test cl,cl</text>
<text text-anchor="start" x="225.5" y="-1568.8" font-family="Lucida Console" font-size="14.00">00007ffb`1f501b56 je tiptsf!CARET::ProcessCaretEvents+0x8c (00007ffb`1f501b7c)</text>
</g>
<!-- tiptsfCARET::ProcessCaretEvents0x57&#45;&gt;tiptsfCARET::ProcessCaretEvents0x64 -->
<g id="edge11" class="edge"><title>tiptsfCARET::ProcessCaretEvents0x57&#45;&gt;tiptsfCARET::ProcessCaretEvents0x64</title>
<path fill="none" stroke="black" d="M679.42,-1723.87C630.033,-1708.18 566.5,-1688 566.5,-1688 566.5,-1688 558.141,-1640.92 552.511,-1609.22"/>
<polygon fill="black" stroke="black" points="555.918,-1608.39 550.723,-1599.15 549.025,-1609.61 555.918,-1608.39"/>
</g>
<!-- tiptsfCARET::ProcessCaretEvents0x14f&#45;&gt;tiptsfCARET::ProcessCaretEvents0x64 -->
<g id="edge19" class="edge"><title>tiptsfCARET::ProcessCaretEvents0x14f&#45;&gt;tiptsfCARET::ProcessCaretEvents0x64</title>
<path fill="none" stroke="black" d="M804.757,-1634.96C752.511,-1624 692.352,-1611.38 643.351,-1601.11"/>
<polygon fill="black" stroke="black" points="643.895,-1597.64 633.389,-1599.02 642.457,-1604.49 643.895,-1597.64"/>
</g>
<!-- tiptsfCARET::ProcessCaretEvents0x162 -->
<g id="node16" class="node"><title>tiptsfCARET::ProcessCaretEvents0x162</title>
<polygon fill="none" stroke="black" points="1555.5,-1479 887.5,-1479 887.5,-1443 1555.5,-1443 1555.5,-1479"/>
<text text-anchor="start" x="895.5" y="-1457.3" font-family="Lucida Console" font-size="14.00">00007ffb`1f53b545 jmp tiptsf!CARET::ProcessCaretEvents+0x8c (00007ffb`1f501b7c)</text>
</g>
<!-- tiptsfCARET::ProcessCaretEvents0x14f&#45;&gt;tiptsfCARET::ProcessCaretEvents0x162 -->
<g id="edge20" class="edge"><title>tiptsfCARET::ProcessCaretEvents0x14f&#45;&gt;tiptsfCARET::ProcessCaretEvents0x162</title>
<path fill="none" stroke="black" d="M964.462,-1634.96C1022.51,-1595.89 1132.42,-1521.94 1187.81,-1484.67"/>
<polygon fill="black" stroke="black" points="1189.87,-1487.5 1196.21,-1479.02 1185.96,-1481.7 1189.87,-1487.5"/>
</g>
<!-- tiptsfCARET::ProcessCaretEvents0x8c -->
<g id="node12" class="node"><title>tiptsfCARET::ProcessCaretEvents0x8c</title>
<polygon fill="gray" stroke="black" points="877.5,-1361 217.5,-1361 217.5,-1308 877.5,-1308 877.5,-1361"/>
<text text-anchor="start" x="225.5" y="-1345.8" font-family="Lucida Console" font-size="14.00">00007ffb`1f501b7c mov ecx,dword ptr [tiptsf!dwTlsIndex (00007ffb`1f574378)]</text>
<text text-anchor="start" x="225.5" y="-1330.8" font-family="Lucida Console" font-size="14.00">00007ffb`1f501b82 cmp ecx,0FFFFFFFFh</text>
<text text-anchor="start" x="225.5" y="-1315.8" font-family="Lucida Console" font-size="14.00">00007ffb`1f501b85 je tiptsf!CARET::ProcessCaretEvents+0xa2 (00007ffb`1f501b96)</text>
</g>
<!-- tiptsfCARET::ProcessCaretEvents0x64&#45;&gt;tiptsfCARET::ProcessCaretEvents0x8c -->
<g id="edge12" class="edge"><title>tiptsfCARET::ProcessCaretEvents0x64&#45;&gt;tiptsfCARET::ProcessCaretEvents0x8c</title>
<path fill="none" stroke="black" d="M436.822,-1560.94C340.598,-1545.25 216.5,-1525 216.5,-1525 216.5,-1525 216.5,-1397 216.5,-1397 216.5,-1397 311.782,-1379.3 400.104,-1362.89"/>
<polygon fill="black" stroke="black" points="400.809,-1366.32 410.002,-1361.05 399.531,-1359.43 400.809,-1366.32"/>
</g>
<!-- tiptsfCARET::ProcessCaretEvents0x68 -->
<g id="node13" class="node"><title>tiptsfCARET::ProcessCaretEvents0x68</title>
<polygon fill="none" stroke="black" points="869.5,-1525 225.5,-1525 225.5,-1397 869.5,-1397 869.5,-1525"/>
<text text-anchor="start" x="233.5" y="-1509.8" font-family="Lucida Console" font-size="14.00">00007ffb`1f501b58 mov eax,dword ptr [rsp+0D0h]</text>
<text text-anchor="start" x="233.5" y="-1494.8" font-family="Lucida Console" font-size="14.00">00007ffb`1f501b5f mov r9d,esi</text>
<text text-anchor="start" x="233.5" y="-1479.8" font-family="Lucida Console" font-size="14.00">00007ffb`1f501b62 mov r8d,ebx</text>
<text text-anchor="start" x="233.5" y="-1464.8" font-family="Lucida Console" font-size="14.00">00007ffb`1f501b65 mov rdx,rdi</text>
<text text-anchor="start" x="233.5" y="-1449.8" font-family="Lucida Console" font-size="14.00">00007ffb`1f501b68 xor ecx,ecx</text>
<text text-anchor="start" x="233.5" y="-1434.8" font-family="Lucida Console" font-size="14.00">00007ffb`1f501b6a mov qword ptr [rsp+28h],0</text>
<text text-anchor="start" x="233.5" y="-1419.8" font-family="Lucida Console" font-size="14.00">00007ffb`1f501b73 mov dword ptr [rsp+20h],eax</text>
<text text-anchor="start" x="233.5" y="-1404.8" font-family="Lucida Console" font-size="14.00">00007ffb`1f501b77 call tiptsf!CARET::_ProcessCaretEvents (00007ffb`1f501820)</text>
</g>
<!-- tiptsfCARET::ProcessCaretEvents0x64&#45;&gt;tiptsfCARET::ProcessCaretEvents0x68 -->
<g id="edge13" class="edge"><title>tiptsfCARET::ProcessCaretEvents0x64&#45;&gt;tiptsfCARET::ProcessCaretEvents0x68</title>
<path fill="none" stroke="black" d="M547.5,-1560.98C547.5,-1553.65 547.5,-1544.66 547.5,-1535.12"/>
<polygon fill="black" stroke="black" points="551,-1535.02 547.5,-1525.02 544,-1535.02 551,-1535.02"/>
</g>
<!-- tiptsfCARET::ProcessCaretEvents0x8c&#45;&gt;tiptsfCARET::ProcessCaretEvents0xa2 -->
<g id="edge15" class="edge"><title>tiptsfCARET::ProcessCaretEvents0x8c&#45;&gt;tiptsfCARET::ProcessCaretEvents0xa2</title>
<path fill="none" stroke="black" d="M407.509,-1307.95C314.919,-1291.06 210.5,-1272 210.5,-1272 210.5,-1272 191.5,-1157.5 191.5,-1157.5 191.5,-1157.5 191.5,-1157.5 191.5,-316 191.5,-316 242.5,-164 242.5,-164 242.5,-164 249.902,-152.368 259.632,-137.079"/>
<polygon fill="black" stroke="black" points="262.828,-138.574 265.244,-128.259 256.923,-134.816 262.828,-138.574"/>
</g>
<!-- tiptsfCARET::ProcessCaretEvents0x97 -->
<g id="node14" class="node"><title>tiptsfCARET::ProcessCaretEvents0x97</title>
<polygon fill="none" stroke="black" points="887.5,-1272 219.5,-1272 219.5,-1219 887.5,-1219 887.5,-1272"/>
<text text-anchor="start" x="227.5" y="-1256.8" font-family="Lucida Console" font-size="14.00">00007ffb`1f501b87 call qword ptr [tiptsf!_imp_TlsGetValue (00007ffb`1f57d348)]</text>
<text text-anchor="start" x="227.5" y="-1241.8" font-family="Lucida Console" font-size="14.00">00007ffb`1f501b8d test rax,rax</text>
<text text-anchor="start" x="227.5" y="-1226.8" font-family="Lucida Console" font-size="14.00">00007ffb`1f501b90 jne tiptsf!CARET::ProcessCaretEvents+0xbd (00007ffb`1f501f2e)</text>
</g>
<!-- tiptsfCARET::ProcessCaretEvents0x8c&#45;&gt;tiptsfCARET::ProcessCaretEvents0x97 -->
<g id="edge16" class="edge"><title>tiptsfCARET::ProcessCaretEvents0x8c&#45;&gt;tiptsfCARET::ProcessCaretEvents0x97</title>
<path fill="none" stroke="black" d="M549.268,-1307.87C549.818,-1299.89 550.436,-1290.93 551.025,-1282.38"/>
<polygon fill="black" stroke="black" points="554.528,-1282.47 551.724,-1272.25 547.544,-1281.99 554.528,-1282.47"/>
</g>
<!-- tiptsfCARET::ProcessCaretEvents0x68&#45;&gt;tiptsfCARET::ProcessCaretEvents0x8c -->
<g id="edge14" class="edge"><title>tiptsfCARET::ProcessCaretEvents0x68&#45;&gt;tiptsfCARET::ProcessCaretEvents0x8c</title>
<path fill="none" stroke="black" d="M547.5,-1396.66C547.5,-1387.88 547.5,-1379.14 547.5,-1371.13"/>
<polygon fill="black" stroke="black" points="551,-1371.06 547.5,-1361.06 544,-1371.06 551,-1371.06"/>
</g>
<!-- tiptsfCARET::ProcessCaretEvents0x97&#45;&gt;tiptsfCARET::ProcessCaretEvents0xa2 -->
<g id="edge18" class="edge"><title>tiptsfCARET::ProcessCaretEvents0x97&#45;&gt;tiptsfCARET::ProcessCaretEvents0xa2</title>
<path fill="none" stroke="black" d="M426.802,-1218.95C343.004,-1202.06 248.5,-1183 248.5,-1183 248.5,-1183 229.5,-1076 229.5,-1076 229.5,-1076 229.5,-1076 229.5,-316 229.5,-316 272.5,-164 272.5,-164 272.5,-164 276.235,-152.795 281.192,-137.924"/>
<polygon fill="black" stroke="black" points="284.572,-138.852 284.414,-128.259 277.931,-136.639 284.572,-138.852"/>
</g>
<!-- tiptsfCARET::ProcessCaretEvents0xbd -->
<g id="node15" class="node"><title>tiptsfCARET::ProcessCaretEvents0xbd</title>
<polygon fill="none" stroke="black" points="917.5,-1183 257.5,-1183 257.5,-1130 917.5,-1130 917.5,-1183"/>
<text text-anchor="start" x="265.5" y="-1167.8" font-family="Lucida Console" font-size="14.00">00007ffb`1f501f2e mov rdi,qword ptr [rax]</text>
<text text-anchor="start" x="265.5" y="-1152.8" font-family="Lucida Console" font-size="14.00">00007ffb`1f501f31 test rdi,rdi</text>
<text text-anchor="start" x="265.5" y="-1137.8" font-family="Lucida Console" font-size="14.00">00007ffb`1f501f34 je tiptsf!CARET::ProcessCaretEvents+0xa2 (00007ffb`1f501b96)</text>
</g>
<!-- tiptsfCARET::ProcessCaretEvents0x97&#45;&gt;tiptsfCARET::ProcessCaretEvents0xbd -->
<g id="edge17" class="edge"><title>tiptsfCARET::ProcessCaretEvents0x97&#45;&gt;tiptsfCARET::ProcessCaretEvents0xbd</title>
<path fill="none" stroke="black" d="M563.517,-1218.87C566.705,-1210.71 570.29,-1201.54 573.697,-1192.82"/>
<polygon fill="black" stroke="black" points="577.057,-1193.84 577.437,-1183.25 570.537,-1191.29 577.057,-1193.84"/>
</g>
<!-- tiptsfCARET::ProcessCaretEvents0xbd&#45;&gt;tiptsfCARET::ProcessCaretEvents0xa2 -->
<g id="edge22" class="edge"><title>tiptsfCARET::ProcessCaretEvents0xbd&#45;&gt;tiptsfCARET::ProcessCaretEvents0xa2</title>
<path fill="none" stroke="black" d="M462.464,-1129.95C379.764,-1113.06 286.5,-1094 286.5,-1094 286.5,-1094 267.5,-1002 267.5,-1002 267.5,-1002 267.5,-1002 267.5,-316 267.5,-316 283.193,-212.345 294.409,-138.258"/>
<polygon fill="black" stroke="black" points="297.924,-138.425 295.96,-128.014 291.003,-137.377 297.924,-138.425"/>
</g>
<!-- tiptsfCARET::ProcessCaretEvents0xc5 -->
<g id="node17" class="node"><title>tiptsfCARET::ProcessCaretEvents0xc5</title>
<polygon fill="none" stroke="black" points="955.5,-1094 295.5,-1094 295.5,-1056 955.5,-1056 955.5,-1094"/>
<text text-anchor="start" x="303.5" y="-1078.8" font-family="Lucida Console" font-size="14.00">00007ffb`1f501f3a cmp ebx,13h</text>
<text text-anchor="start" x="303.5" y="-1063.8" font-family="Lucida Console" font-size="14.00">00007ffb`1f501f3d ja tiptsf!CARET::ProcessCaretEvents+0xa2 (00007ffb`1f501b96)</text>
</g>
<!-- tiptsfCARET::ProcessCaretEvents0xbd&#45;&gt;tiptsfCARET::ProcessCaretEvents0xc5 -->
<g id="edge23" class="edge"><title>tiptsfCARET::ProcessCaretEvents0xbd&#45;&gt;tiptsfCARET::ProcessCaretEvents0xc5</title>
<path fill="none" stroke="black" d="M599.733,-1129.91C603.768,-1121.47 608.272,-1112.04 612.372,-1103.47"/>
<polygon fill="black" stroke="black" points="615.627,-1104.77 616.782,-1094.24 609.312,-1101.75 615.627,-1104.77"/>
</g>
<!-- tiptsfCARET::ProcessCaretEvents0x162&#45;&gt;tiptsfCARET::ProcessCaretEvents0x8c -->
<g id="edge42" class="edge"><title>tiptsfCARET::ProcessCaretEvents0x162&#45;&gt;tiptsfCARET::ProcessCaretEvents0x8c</title>
<path fill="none" stroke="black" d="M1129.2,-1442.95C1017.55,-1422.33 828.151,-1387.34 695.904,-1362.91"/>
<polygon fill="black" stroke="black" points="696.156,-1359.4 685.687,-1361.03 694.885,-1366.28 696.156,-1359.4"/>
</g>
<!-- tiptsfCARET::ProcessCaretEvents0x162&#45;&gt;tiptsfCARET::ProcessCaretEvents0x162 -->
<g id="edge21" class="edge"><title>tiptsfCARET::ProcessCaretEvents0x162&#45;&gt;tiptsfCARET::ProcessCaretEvents0x162</title>
<path fill="none" stroke="black" d="M1341.88,-1479C1453.26,-1488.12 1573.5,-1482.12 1573.5,-1461 1573.5,-1440.52 1460.43,-1434.26 1352.02,-1442.21"/>
<polygon fill="black" stroke="black" points="1351.58,-1438.73 1341.88,-1443 1352.12,-1445.71 1351.58,-1438.73"/>
</g>
<!-- tiptsfCARET::ProcessCaretEvents0xc5&#45;&gt;tiptsfCARET::ProcessCaretEvents0xa2 -->
<g id="edge24" class="edge"><title>tiptsfCARET::ProcessCaretEvents0xc5&#45;&gt;tiptsfCARET::ProcessCaretEvents0xa2</title>
<path fill="none" stroke="black" d="M529.534,-1055.94C446.101,-1040.25 338.5,-1020 338.5,-1020 338.5,-1020 305.5,-928 305.5,-928 305.5,-928 305.5,-928 305.5,-316 305.5,-316 305.5,-212.345 305.5,-138.258"/>
<polygon fill="black" stroke="black" points="309,-138.014 305.5,-128.014 302,-138.014 309,-138.014"/>
</g>
<!-- tiptsfCARET::ProcessCaretEvents0xca -->
<g id="node18" class="node"><title>tiptsfCARET::ProcessCaretEvents0xca</title>
<polygon fill="none" stroke="black" points="1007.5,-1020 347.5,-1020 347.5,-982 1007.5,-982 1007.5,-1020"/>
<text text-anchor="start" x="355.5" y="-1004.8" font-family="Lucida Console" font-size="14.00">00007ffb`1f501f43 cmp ebx,7</text>
<text text-anchor="start" x="355.5" y="-989.8" font-family="Lucida Console" font-size="14.00">00007ffb`1f501f46 je tiptsf!CARET::ProcessCaretEvents+0xde (00007ffb`1f501f5b)</text>
</g>
<!-- tiptsfCARET::ProcessCaretEvents0xc5&#45;&gt;tiptsfCARET::ProcessCaretEvents0xca -->
<g id="edge25" class="edge"><title>tiptsfCARET::ProcessCaretEvents0xc5&#45;&gt;tiptsfCARET::ProcessCaretEvents0xca</title>
<path fill="none" stroke="black" d="M638.622,-1055.83C644.55,-1047.62 651.673,-1037.76 658.193,-1028.73"/>
<polygon fill="black" stroke="black" points="661.184,-1030.57 664.202,-1020.41 655.509,-1026.47 661.184,-1030.57"/>
</g>
<!-- tiptsfCARET::ProcessCaretEvents0xde -->
<g id="node19" class="node"><title>tiptsfCARET::ProcessCaretEvents0xde</title>
<polygon fill="none" stroke="black" points="1075,-724 374,-724 374,-446 1075,-446 1075,-724"/>
<text text-anchor="start" x="382" y="-708.8" font-family="Lucida Console" font-size="14.00">00007ffb`1f501f5b xor edx,edx</text>
<text text-anchor="start" x="382" y="-693.8" font-family="Lucida Console" font-size="14.00">00007ffb`1f501f5d lea rcx,[rdi+140h]</text>
<text text-anchor="start" x="382" y="-678.8" font-family="Lucida Console" font-size="14.00">00007ffb`1f501f64 lea r8d,[rdx+10h]</text>
<text text-anchor="start" x="382" y="-663.8" font-family="Lucida Console" font-size="14.00">00007ffb`1f501f68 call tiptsf!memset (00007ffb`1f501dc8)</text>
<text text-anchor="start" x="382" y="-648.8" font-family="Lucida Console" font-size="14.00">00007ffb`1f501f6d xor edx,edx</text>
<text text-anchor="start" x="382" y="-633.8" font-family="Lucida Console" font-size="14.00">00007ffb`1f501f6f lea rcx,[rdi+130h]</text>
<text text-anchor="start" x="382" y="-618.8" font-family="Lucida Console" font-size="14.00">00007ffb`1f501f76 lea r8d,[rdx+10h]</text>
<text text-anchor="start" x="382" y="-603.8" font-family="Lucida Console" font-size="14.00">00007ffb`1f501f7a call tiptsf!memset (00007ffb`1f501dc8)</text>
<text text-anchor="start" x="382" y="-588.8" font-family="Lucida Console" font-size="14.00">00007ffb`1f501f7f xor edx,edx</text>
<text text-anchor="start" x="382" y="-573.8" font-family="Lucida Console" font-size="14.00">00007ffb`1f501f81 lea rcx,[rsp+30h]</text>
<text text-anchor="start" x="382" y="-558.8" font-family="Lucida Console" font-size="14.00">00007ffb`1f501f86 lea r8d,[rdx+48h]</text>
<text text-anchor="start" x="382" y="-543.8" font-family="Lucida Console" font-size="14.00">00007ffb`1f501f8a call tiptsf!memset (00007ffb`1f501dc8)</text>
<text text-anchor="start" x="382" y="-528.8" font-family="Lucida Console" font-size="14.00">00007ffb`1f501f8f lea rdx,[rsp+30h]</text>
<text text-anchor="start" x="382" y="-513.8" font-family="Lucida Console" font-size="14.00">00007ffb`1f501f94 xor ecx,ecx</text>
<text text-anchor="start" x="382" y="-498.8" font-family="Lucida Console" font-size="14.00">00007ffb`1f501f96 mov dword ptr [rsp+30h],48h</text>
<text text-anchor="start" x="382" y="-483.8" font-family="Lucida Console" font-size="14.00">00007ffb`1f501f9e call qword ptr [tiptsf!_imp_GetGUIThreadInfo (00007ffb`1f57d690)]</text>
<text text-anchor="start" x="382" y="-468.8" font-family="Lucida Console" font-size="14.00">00007ffb`1f501fa4 cmp qword ptr [rdi+0B8h],0</text>
<text text-anchor="start" x="382" y="-453.8" font-family="Lucida Console" font-size="14.00">00007ffb`1f501fac je tiptsf!CARET::ProcessCaretEvents+0xa2 (00007ffb`1f501b96)</text>
</g>
<!-- tiptsfCARET::ProcessCaretEvents0xca&#45;&gt;tiptsfCARET::ProcessCaretEvents0xde -->
<g id="edge26" class="edge"><title>tiptsfCARET::ProcessCaretEvents0xca&#45;&gt;tiptsfCARET::ProcessCaretEvents0xde</title>
<path fill="none" stroke="black" d="M679.55,-981.945C684.412,-939.112 697.036,-827.919 707.671,-734.235"/>
<polygon fill="black" stroke="black" points="711.175,-734.4 708.826,-724.069 704.22,-733.61 711.175,-734.4"/>
</g>
<!-- tiptsfCARET::ProcessCaretEvents0xcf -->
<g id="node20" class="node"><title>tiptsfCARET::ProcessCaretEvents0xcf</title>
<polygon fill="none" stroke="black" points="1365.5,-946 705.5,-946 705.5,-908 1365.5,-908 1365.5,-946"/>
<text text-anchor="start" x="713.5" y="-930.8" font-family="Lucida Console" font-size="14.00">00007ffb`1f501f48 cmp ebx,5</text>
<text text-anchor="start" x="713.5" y="-915.8" font-family="Lucida Console" font-size="14.00">00007ffb`1f501f4b je tiptsf!CARET::ProcessCaretEvents+0xde (00007ffb`1f501f5b)</text>
</g>
<!-- tiptsfCARET::ProcessCaretEvents0xca&#45;&gt;tiptsfCARET::ProcessCaretEvents0xcf -->
<g id="edge27" class="edge"><title>tiptsfCARET::ProcessCaretEvents0xca&#45;&gt;tiptsfCARET::ProcessCaretEvents0xcf</title>
<path fill="none" stroke="black" d="M767.376,-981.924C818.649,-971.613 883.019,-958.667 935.836,-948.044"/>
<polygon fill="black" stroke="black" points="936.784,-951.424 945.897,-946.021 935.403,-944.561 936.784,-951.424"/>
</g>
<!-- tiptsfCARET::ProcessCaretEvents0xde&#45;&gt;tiptsfCARET::ProcessCaretEvents0xa2 -->
<g id="edge34" class="edge"><title>tiptsfCARET::ProcessCaretEvents0xde&#45;&gt;tiptsfCARET::ProcessCaretEvents0xa2</title>
<path fill="none" stroke="black" d="M453.742,-445.842C412.573,-424.835 383.5,-410 383.5,-410 383.5,-410 344.935,-239.426 322.04,-138.156"/>
<polygon fill="black" stroke="black" points="325.426,-137.26 319.806,-128.278 318.598,-138.804 325.426,-137.26"/>
</g>
<!-- tiptsfCARET::ProcessCaretEvents0x135 -->
<g id="node23" class="node"><title>tiptsfCARET::ProcessCaretEvents0x135</title>
<polygon fill="none" stroke="black" points="1060.5,-410 392.5,-410 392.5,-372 1060.5,-372 1060.5,-410"/>
<text text-anchor="start" x="400.5" y="-394.8" font-family="Lucida Console" font-size="14.00">00007ffb`1f501fb2 cmp ebx,13h</text>
<text text-anchor="start" x="400.5" y="-379.8" font-family="Lucida Console" font-size="14.00">00007ffb`1f501fb5 je tiptsf!CARET::ProcessCaretEvents+0x167 (00007ffb`1f53b54a)</text>
</g>
<!-- tiptsfCARET::ProcessCaretEvents0xde&#45;&gt;tiptsfCARET::ProcessCaretEvents0x135 -->
<g id="edge35" class="edge"><title>tiptsfCARET::ProcessCaretEvents0xde&#45;&gt;tiptsfCARET::ProcessCaretEvents0x135</title>
<path fill="none" stroke="black" d="M725.938,-445.994C726.034,-436.7 726.124,-428.061 726.203,-420.539"/>
<polygon fill="black" stroke="black" points="729.704,-420.408 726.309,-410.372 722.705,-420.335 729.704,-420.408"/>
</g>
<!-- tiptsfCARET::ProcessCaretEvents0xcf&#45;&gt;tiptsfCARET::ProcessCaretEvents0xde -->
<g id="edge28" class="edge"><title>tiptsfCARET::ProcessCaretEvents0xcf&#45;&gt;tiptsfCARET::ProcessCaretEvents0xde</title>
<path fill="none" stroke="black" d="M937.194,-907.944C851.726,-892.246 741.5,-872 741.5,-872 741.5,-872 737.471,-804.225 733.336,-734.661"/>
<polygon fill="black" stroke="black" points="736.813,-734.167 732.726,-724.392 729.826,-734.582 736.813,-734.167"/>
</g>
<!-- tiptsfCARET::ProcessCaretEvents0xd4 -->
<g id="node21" class="node"><title>tiptsfCARET::ProcessCaretEvents0xd4</title>
<polygon fill="none" stroke="black" points="1410.5,-872 750.5,-872 750.5,-834 1410.5,-834 1410.5,-872"/>
<text text-anchor="start" x="758.5" y="-856.8" font-family="Lucida Console" font-size="14.00">00007ffb`1f501f4d cmp ebx,0Bh</text>
<text text-anchor="start" x="758.5" y="-841.8" font-family="Lucida Console" font-size="14.00">00007ffb`1f501f50 je tiptsf!CARET::ProcessCaretEvents+0xde (00007ffb`1f501f5b)</text>
</g>
<!-- tiptsfCARET::ProcessCaretEvents0xcf&#45;&gt;tiptsfCARET::ProcessCaretEvents0xd4 -->
<g id="edge29" class="edge"><title>tiptsfCARET::ProcessCaretEvents0xcf&#45;&gt;tiptsfCARET::ProcessCaretEvents0xd4</title>
<path fill="none" stroke="black" d="M1046.86,-907.831C1051.93,-899.708 1058.02,-889.964 1063.62,-881.012"/>
<polygon fill="black" stroke="black" points="1066.66,-882.748 1068.99,-872.413 1060.72,-879.038 1066.66,-882.748"/>
</g>
<!-- tiptsfCARET::ProcessCaretEvents0xd4&#45;&gt;tiptsfCARET::ProcessCaretEvents0xde -->
<g id="edge30" class="edge"><title>tiptsfCARET::ProcessCaretEvents0xd4&#45;&gt;tiptsfCARET::ProcessCaretEvents0xde</title>
<path fill="none" stroke="black" d="M979.853,-833.944C892.35,-818.246 779.5,-798 779.5,-798 779.5,-798 772.178,-769.778 762.878,-733.929"/>
<polygon fill="black" stroke="black" points="766.24,-732.951 760.341,-724.15 759.464,-734.709 766.24,-732.951"/>
</g>
<!-- tiptsfCARET::ProcessCaretEvents0xd9 -->
<g id="node22" class="node"><title>tiptsfCARET::ProcessCaretEvents0xd9</title>
<polygon fill="none" stroke="black" points="1456.5,-798 788.5,-798 788.5,-760 1456.5,-760 1456.5,-798"/>
<text text-anchor="start" x="796.5" y="-782.8" font-family="Lucida Console" font-size="14.00">00007ffb`1f501f52 cmp ebx,13h</text>
<text text-anchor="start" x="796.5" y="-767.8" font-family="Lucida Console" font-size="14.00">00007ffb`1f501f55 jne tiptsf!CARET::ProcessCaretEvents+0xa2 (00007ffb`1f501b96)</text>
</g>
<!-- tiptsfCARET::ProcessCaretEvents0xd4&#45;&gt;tiptsfCARET::ProcessCaretEvents0xd9 -->
<g id="edge31" class="edge"><title>tiptsfCARET::ProcessCaretEvents0xd4&#45;&gt;tiptsfCARET::ProcessCaretEvents0xd9</title>
<path fill="none" stroke="black" d="M1091.1,-833.831C1095.79,-825.792 1101.4,-816.167 1106.58,-807.292"/>
<polygon fill="black" stroke="black" points="1109.74,-808.815 1111.76,-798.413 1103.7,-805.288 1109.74,-808.815"/>
</g>
<!-- tiptsfCARET::ProcessCaretEvents0xd9&#45;&gt;tiptsfCARET::ProcessCaretEvents0xa2 -->
<g id="edge32" class="edge"><title>tiptsfCARET::ProcessCaretEvents0xd9&#45;&gt;tiptsfCARET::ProcessCaretEvents0xa2</title>
<path fill="none" stroke="black" d="M1154.43,-759.9C1289.07,-683.586 1803.5,-392 1803.5,-392 1803.5,-392 1803.5,-392 1803.5,-316 1803.5,-316 1784.5,-164 1784.5,-164 1784.5,-164 1055.66,-115.214 621.259,-86.136"/>
<polygon fill="black" stroke="black" points="621.264,-82.6286 611.053,-85.4528 620.797,-89.613 621.264,-82.6286"/>
</g>
<!-- tiptsfCARET::ProcessCaretEvents0xd9&#45;&gt;tiptsfCARET::ProcessCaretEvents0xde -->
<g id="edge33" class="edge"><title>tiptsfCARET::ProcessCaretEvents0xd9&#45;&gt;tiptsfCARET::ProcessCaretEvents0xde</title>
<path fill="none" stroke="black" d="M1085.06,-759.937C1067.57,-751.503 1045.03,-740.629 1019.77,-728.44"/>
<polygon fill="black" stroke="black" points="1021.25,-725.268 1010.72,-724.075 1018.2,-731.573 1021.25,-725.268"/>
</g>
<!-- tiptsfCARET::ProcessCaretEvents0x167 -->
<g id="node24" class="node"><title>tiptsfCARET::ProcessCaretEvents0x167</title>
<polygon fill="none" stroke="black" points="1422.5,-336 754.5,-336 754.5,-298 1422.5,-298 1422.5,-336"/>
<text text-anchor="start" x="762.5" y="-320.8" font-family="Lucida Console" font-size="14.00">00007ffb`1f53b54a cmp qword ptr [rsp+48h],0</text>
<text text-anchor="start" x="762.5" y="-305.8" font-family="Lucida Console" font-size="14.00">00007ffb`1f53b550 je tiptsf!CARET::ProcessCaretEvents+0x13a (00007ffb`1f501fbb)</text>
</g>
<!-- tiptsfCARET::ProcessCaretEvents0x135&#45;&gt;tiptsfCARET::ProcessCaretEvents0x167 -->
<g id="edge36" class="edge"><title>tiptsfCARET::ProcessCaretEvents0x135&#45;&gt;tiptsfCARET::ProcessCaretEvents0x167</title>
<path fill="none" stroke="black" d="M817.381,-371.924C869.334,-361.591 934.586,-348.613 988.055,-337.978"/>
<polygon fill="black" stroke="black" points="988.771,-341.404 997.896,-336.021 987.405,-334.539 988.771,-341.404"/>
</g>
<!-- tiptsfCARET::ProcessCaretEvents0x13a -->
<g id="node25" class="node"><title>tiptsfCARET::ProcessCaretEvents0x13a</title>
<polygon fill="none" stroke="black" points="1089.5,-262 371.5,-262 371.5,-164 1089.5,-164 1089.5,-262"/>
<text text-anchor="start" x="379.5" y="-246.8" font-family="Lucida Console" font-size="14.00">00007ffb`1f501fbb xor r9d,r9d</text>
<text text-anchor="start" x="379.5" y="-231.8" font-family="Lucida Console" font-size="14.00">00007ffb`1f501fbe mov r8b,1</text>
<text text-anchor="start" x="379.5" y="-216.8" font-family="Lucida Console" font-size="14.00">00007ffb`1f501fc1 xor edx,edx</text>
<text text-anchor="start" x="379.5" y="-201.8" font-family="Lucida Console" font-size="14.00">00007ffb`1f501fc3 mov rcx,rdi</text>
<text text-anchor="start" x="379.5" y="-186.8" font-family="Lucida Console" font-size="14.00">00007ffb`1f501fc6 call tiptsf!CCorrectionIMX::GenerateCaretEvents (00007ffb`1f506214)</text>
<text text-anchor="start" x="379.5" y="-171.8" font-family="Lucida Console" font-size="14.00">00007ffb`1f501fcb jmp tiptsf!CARET::ProcessCaretEvents+0xa2 (00007ffb`1f501b96)</text>
</g>
<!-- tiptsfCARET::ProcessCaretEvents0x135&#45;&gt;tiptsfCARET::ProcessCaretEvents0x13a -->
<g id="edge37" class="edge"><title>tiptsfCARET::ProcessCaretEvents0x135&#45;&gt;tiptsfCARET::ProcessCaretEvents0x13a</title>
<path fill="none" stroke="black" d="M726.913,-371.828C727.443,-348.486 728.39,-306.852 729.177,-272.205"/>
<polygon fill="black" stroke="black" points="732.677,-272.25 729.405,-262.173 725.679,-272.091 732.677,-272.25"/>
</g>
<!-- tiptsfCARET::ProcessCaretEvents0x167&#45;&gt;tiptsfCARET::ProcessCaretEvents0x13a -->
<g id="edge43" class="edge"><title>tiptsfCARET::ProcessCaretEvents0x167&#45;&gt;tiptsfCARET::ProcessCaretEvents0x13a</title>
<path fill="none" stroke="black" d="M1025.32,-297.999C992.545,-288.661 950.69,-276.736 908.88,-264.823"/>
<polygon fill="black" stroke="black" points="909.692,-261.415 899.115,-262.041 907.773,-268.147 909.692,-261.415"/>
</g>
<!-- tiptsfCARET::ProcessCaretEvents0x16f -->
<g id="node26" class="node"><title>tiptsfCARET::ProcessCaretEvents0x16f</title>
<polygon fill="none" stroke="black" points="1775.5,-231 1107.5,-231 1107.5,-195 1775.5,-195 1775.5,-231"/>
<text text-anchor="start" x="1115.5" y="-209.3" font-family="Lucida Console" font-size="14.00">00007ffb`1f53b556 jmp tiptsf!CARET::ProcessCaretEvents+0xa2 (00007ffb`1f501b96)</text>
</g>
<!-- tiptsfCARET::ProcessCaretEvents0x167&#45;&gt;tiptsfCARET::ProcessCaretEvents0x16f -->
<g id="edge44" class="edge"><title>tiptsfCARET::ProcessCaretEvents0x167&#45;&gt;tiptsfCARET::ProcessCaretEvents0x16f</title>
<path fill="none" stroke="black" d="M1150.8,-297.999C1213.02,-280.02 1308.42,-252.453 1372.81,-233.849"/>
<polygon fill="black" stroke="black" points="1373.83,-237.196 1382.47,-231.057 1371.89,-230.471 1373.83,-237.196"/>
</g>
<!-- tiptsfCARET::ProcessCaretEvents0x13a&#45;&gt;tiptsfCARET::ProcessCaretEvents0xa2 -->
<g id="edge38" class="edge"><title>tiptsfCARET::ProcessCaretEvents0x13a&#45;&gt;tiptsfCARET::ProcessCaretEvents0xa2</title>
<path fill="none" stroke="black" d="M591.633,-163.968C561.568,-153.569 529.258,-142.394 497.561,-131.43"/>
<polygon fill="black" stroke="black" points="498.341,-127.997 487.746,-128.036 496.053,-134.612 498.341,-127.997"/>
</g>
<!-- tiptsfCARET::ProcessCaretEvents0x16f&#45;&gt;tiptsfCARET::ProcessCaretEvents0xa2 -->
<g id="edge45" class="edge"><title>tiptsfCARET::ProcessCaretEvents0x16f&#45;&gt;tiptsfCARET::ProcessCaretEvents0xa2</title>
<path fill="none" stroke="black" d="M1319.61,-194.942C1221.02,-181.145 1098.5,-164 1098.5,-164 1098.5,-164 842.504,-132.041 621.412,-104.439"/>
<polygon fill="black" stroke="black" points="621.6,-100.936 611.244,-103.17 620.733,-107.882 621.6,-100.936"/>
</g>
</g>
</svg>
